<svg width="88" height="79" viewBox="0 0 88 79" fill="none" xmlns="http://www.w3.org/2000/svg">
<path fill-rule="evenodd" clip-rule="evenodd" d="M9.81224 32.0259C11.2915 33.6432 12.8999 34.9311 14.6374 35.8896L14.6404 35.8925C16.3779 36.851 18.1168 37.4089 19.8602 37.5647C23.2477 37.8674 26.2033 36.9786 28.7257 34.8999C31.2496 32.8212 33.1102 29.8967 34.3091 26.1264L34.2097 26.1175C32.2081 28.1043 30.3964 29.4604 28.7732 30.189C27.1514 30.916 25.4852 31.2039 23.7744 31.051C20.617 30.7691 18.1005 29.1726 16.2221 26.2629C14.3436 23.3533 13.6225 19.4718 14.0558 14.6214C14.4223 10.5336 15.4387 7.49787 17.1079 5.51705C18.7756 3.53475 20.7119 2.64301 22.9153 2.84035C26.9259 3.19942 31.2347 5.47402 34.7305 12.3527L34.8284 12.3616L34.7225 3.28806C35.1497 3.27241 35.5456 3.26458 35.827 3.26458H39.115V30.7185C39.115 32.1326 38.7619 33.4041 38.0541 34.5348C37.3464 35.6654 36.3745 36.5141 35.1371 37.0794V37.1848H51.3649V37.0794C50.1631 36.5141 49.209 35.6654 48.5013 34.5348C47.795 33.4041 47.4404 32.1326 47.4404 30.7185V3.26458H50.675C50.9881 3.26458 51.2925 3.274 51.5881 3.29283C51.791 3.65665 51.981 4.02749 52.1391 4.41022C54.1603 9.3056 56.1661 14.2061 58.1719 19.107L58.1724 19.1081L58.1724 19.1082L58.1726 19.1087L58.6128 20.184C58.6588 20.2953 58.6914 20.42 58.6914 20.5387C58.6861 21.5325 58.6836 22.5264 58.6811 23.5204V23.5211V23.5212V23.5214V23.5215V23.5217V23.5218V23.5219V23.5221V23.5222C58.6745 26.1456 58.6679 28.7694 58.6098 31.3923C58.5593 33.6699 57.7032 35.584 55.6541 36.8214C55.5948 36.8574 55.5514 36.9215 55.4955 37.004C55.4662 37.0473 55.4334 37.0957 55.393 37.1478H70.0998L70.0985 37.1493L70.1015 37.1478H70.0998L70.1801 37.0514C70.1418 37.0099 70.1048 36.967 70.0678 36.9242L70.0677 36.9241C69.9859 36.8294 69.9042 36.7349 69.8092 36.6552C68.5079 35.5543 67.4322 34.3035 67.2082 32.5393C67.0998 31.6861 67.0331 30.8241 67.0242 29.965C67.0142 29.0426 67.0198 28.1199 67.0254 27.1974C67.034 25.7932 67.0425 24.3892 66.996 22.9869C66.9381 21.2598 67.2364 19.6558 67.8744 18.0415C68.8621 15.544 69.8004 13.0267 70.7386 10.5096L70.7389 10.5089L70.7391 10.5084L70.7392 10.508L70.7394 10.5075L70.7396 10.5071L70.7397 10.5067L70.7399 10.5063L70.74 10.5059L70.7402 10.5055C71.3265 8.93255 71.9128 7.35966 72.5111 5.7916C73.3717 3.53926 74.529 1.50354 76.8659 0.423369C76.9221 0.397199 76.9581 0.326708 77.0032 0.238367C77.0271 0.191473 77.0536 0.13955 77.087 0.0865563H68.3536L68.2705 0.174098C68.3034 0.209754 68.3344 0.248524 68.3655 0.287362V0.287373L68.3656 0.2874L68.3656 0.28746V0.287474C68.4329 0.371427 68.5004 0.455677 68.5866 0.509427C69.2068 0.896688 69.8047 1.32994 69.9754 2.07034C70.1148 2.67275 70.2291 3.32115 70.1475 3.92207C70.011 4.92657 69.8077 5.94443 69.462 6.89552C68.6018 9.26628 67.7001 11.6224 66.7985 13.9783L66.798 13.9797L66.7974 13.9811L66.7971 13.982L66.7967 13.983C66.4812 14.8074 66.1657 15.6318 65.852 16.4568C65.8366 16.4982 65.8107 16.5358 65.7798 16.5805C65.763 16.6048 65.7447 16.6313 65.7259 16.6616C65.7095 16.6347 65.6946 16.6114 65.6811 16.5903L65.6811 16.5902L65.681 16.5901C65.6529 16.5462 65.6311 16.5122 65.6161 16.4761C65.2474 15.5994 64.8779 14.7229 64.5084 13.8464L64.5063 13.8414L64.5042 13.8364L64.5021 13.8313L64.4994 13.825L64.4946 13.8137L64.4893 13.8011L64.4892 13.8009C63.2787 10.9291 62.068 8.05693 60.8814 5.17436C60.6099 4.5126 60.46 3.78556 60.3502 3.07484C60.1974 2.08073 60.6203 1.30027 61.4452 0.734958C61.5126 0.688084 61.5849 0.647673 61.6572 0.607319C61.7473 0.556981 61.8372 0.506732 61.9171 0.444142C61.9787 0.3952 62.0256 0.326886 62.0856 0.239199L62.0857 0.239141L62.0857 0.239106L62.0858 0.239027C62.1167 0.19384 62.1512 0.143511 62.1931 0.0880401H59.0542L59.0538 0.0834062H32.5049V0.0834961L24.9129 0.083496C24.8589 0.0783565 24.8054 0.0734226 24.7522 0.0686945C22.5815 -0.125678 20.433 0.0924346 18.3053 0.723031C16.1776 1.35363 14.2071 2.34775 12.3955 3.70538C10.5838 5.06302 9.05701 6.92514 7.81807 9.2947C6.57765 11.6628 5.8239 14.3558 5.55386 17.3693C5.28382 20.3828 5.55683 23.1752 6.37141 25.7451C7.18599 28.3165 8.33294 30.4086 9.81224 32.0259ZM28.7843 8.36719H19.4915L19.4529 8.43544C19.4785 8.46106 19.5034 8.4881 19.5282 8.51513C19.5796 8.57103 19.6308 8.62686 19.6888 8.66987C20.5094 9.27376 21.1162 10.0765 21.3061 11.1804C21.4337 11.9252 21.5094 12.6953 21.5124 13.4535C21.5181 15.2386 21.5222 16.0012 21.5243 16.4038C21.5255 16.6226 21.5261 16.7351 21.5261 16.8475C21.5261 16.9663 21.5254 17.0851 21.5241 17.3295L21.5241 17.3303L21.524 17.3329L21.524 17.3336L21.524 17.3362L21.524 17.3369L21.524 17.3396L21.524 17.3403C21.5217 17.7551 21.5174 18.5261 21.5109 20.2402C21.5079 21.0592 21.4011 21.8887 21.2587 22.6929C21.0643 23.7938 20.453 24.5728 19.585 25.098C19.5265 25.1333 19.4763 25.185 19.4259 25.2368L19.4259 25.2369C19.4021 25.2614 19.3783 25.2859 19.3535 25.3087L19.3951 25.3636H28.7887L28.8273 25.2969C28.8016 25.2697 28.7767 25.241 28.7518 25.2123C28.702 25.1549 28.6522 25.0975 28.5958 25.052C27.6047 24.2523 27.0023 23.184 26.8836 21.7982C26.8316 21.1987 26.7916 20.5933 26.7916 19.9909C26.7884 18.098 26.7872 17.7539 26.7867 17.7319C26.7869 17.6132 26.7871 17.2685 26.7871 16.3765C26.7871 16.0916 26.7854 15.8066 26.7836 15.5217L26.7836 15.5209C26.7793 14.8284 26.775 14.1361 26.796 13.4446C26.8183 12.7458 26.8702 12.041 26.98 11.354C27.164 10.1981 27.7842 9.35537 28.6018 8.67878C28.6585 8.63221 28.7075 8.57253 28.7566 8.51291C28.7794 8.48515 28.8022 8.45739 28.8258 8.43099L28.7843 8.36719ZM80.5683 64.6414L80.6914 64.6578H80.6944C80.6944 64.7029 80.6972 64.7486 80.7001 64.7943C80.7062 64.8929 80.7123 64.9913 80.6899 65.0836C80.1916 67.1178 79.6907 69.1513 79.1897 71.185L79.188 71.192L79.1863 71.199L79.1846 71.2059L79.1803 71.2231C78.9163 72.2949 78.6523 73.3667 78.3886 74.4387C78.2768 74.8936 78.1656 75.3485 78.0545 75.8033L78.0544 75.804C77.8531 76.6278 77.652 77.4513 77.4465 78.2742C77.4261 78.3568 77.3812 78.433 77.3363 78.5092C77.3245 78.5293 77.3126 78.5495 77.3012 78.5697C77.293 78.5844 77.2849 78.5991 77.2773 78.614C77.2584 78.5975 77.2383 78.5817 77.2177 78.5663C77.207 78.5583 77.1962 78.5504 77.1854 78.5425L77.1708 78.532C77.0926 78.4754 77.015 78.4192 76.9746 78.3424C76.4182 77.289 75.5413 76.7459 74.3558 76.6866C74.2413 76.6808 74.1267 76.6745 74.012 76.6683L74.01 76.6682C73.595 76.6455 73.1794 76.6228 72.7637 76.6228C66.9771 76.6213 61.1919 76.6213 55.4053 76.6213V76.6108H47.9927H47.5179C47.5075 76.593 47.4975 76.5752 47.4875 76.5574L47.4714 76.5288L47.4571 76.504C47.4898 76.4773 47.5214 76.4484 47.5529 76.4196C47.6229 76.3555 47.6928 76.2917 47.7746 76.2518C49.0685 75.6197 49.6516 74.5707 49.5952 73.1967C49.567 72.5157 49.4646 71.8287 49.3029 71.1654C49.1679 70.6155 48.996 70.0746 48.8241 69.5337C48.7182 69.2005 48.6123 68.8672 48.515 68.5318C48.4557 68.327 48.3533 68.2751 48.15 68.2751C45.319 68.281 42.4865 68.281 39.6555 68.2751C39.4463 68.2736 39.3424 68.3404 39.2905 68.5392C39.1845 68.9478 39.0692 69.3545 38.9538 69.7611L38.9537 69.7616C38.7202 70.5845 38.4869 71.407 38.332 72.2441C37.9981 74.0424 38.6985 75.3081 40.3484 76.2043C40.4494 76.2584 40.5424 76.325 40.6355 76.3917L40.6356 76.3917L40.6783 76.4222C40.7037 76.4403 40.7292 76.4582 40.755 76.4758C40.7485 76.4887 40.7419 76.5014 40.7352 76.514L40.7275 76.5284C40.7183 76.5459 40.709 76.5633 40.7001 76.5812H31.5928C31.6213 76.5378 31.6446 76.4947 31.6664 76.4543C31.708 76.3773 31.744 76.3105 31.8005 76.2725C34.0677 74.7591 35.3942 72.5824 36.2533 70.1194C37.1193 67.6381 37.9207 65.1369 38.7224 62.6351L38.9463 61.9365C41.3203 54.5385 43.6839 47.136 46.0386 39.732C46.1558 39.3656 46.3146 39.2454 46.7048 39.2617L46.773 39.2644C47.4811 39.2922 47.488 39.2925 47.7168 39.9947L57.6342 70.4948C57.8491 71.1541 58.0793 71.8067 58.3589 72.437C58.3935 72.2684 58.4223 72.0963 58.4455 71.9207C58.5404 71.2026 58.6146 70.4756 58.6146 69.7515C58.625 61.8193 58.625 53.8886 58.6072 45.9565C58.6042 45.222 58.493 44.4831 58.3713 43.7575C58.0805 42.0379 57.1383 40.7529 55.6352 39.8701C55.616 39.8589 55.594 39.8482 55.5717 39.8372L55.5715 39.8371L55.5714 39.8371C55.508 39.806 55.4422 39.7737 55.429 39.7277C55.4067 39.6535 55.4438 39.5155 55.5032 39.4769C55.553 39.4451 55.6286 39.4512 55.704 39.4572L55.7041 39.4572C55.7342 39.4597 55.7642 39.4621 55.7925 39.4621H69.8882C69.8999 39.4621 69.9119 39.4612 69.9239 39.4603C69.95 39.4584 69.9761 39.4564 69.9995 39.4636C70.074 39.4877 70.147 39.5155 70.2202 39.5434C70.2504 39.555 70.2807 39.5665 70.3111 39.5778C70.2858 39.6055 70.2619 39.635 70.2381 39.6645L70.238 39.6646C70.1891 39.725 70.1404 39.7852 70.0796 39.83C69.9506 39.9255 69.8181 40.0166 69.6857 40.1077L69.6853 40.1079C69.4721 40.2546 69.2588 40.4013 69.0603 40.566C67.9267 41.5052 67.3599 42.759 67.1714 44.1804C67.0542 45.0677 66.9845 45.9683 66.983 46.8645C66.9682 55.227 66.9726 63.5894 66.9771 71.9519C66.9771 72.4059 66.9993 72.8614 67.0453 73.314C67.1685 74.5099 67.8762 74.9194 69.0425 74.5529C69.9357 74.271 70.8111 73.8363 71.593 73.3184C74.3929 71.4667 76.7877 69.158 78.9525 66.6059C79.3277 66.1638 79.6932 65.7148 80.0589 65.2654C80.2283 65.0573 80.3978 64.849 80.5683 64.6414ZM32.0432 59.5149C32.1759 59.0338 32.3087 58.5529 32.4415 58.072C32.7068 57.1112 32.9721 56.1504 33.2362 55.1882L33.7351 53.3699L33.7355 53.3686L33.7359 53.3672L33.7362 53.3659L33.7366 53.3646L33.737 53.3632C34.446 50.7799 35.1551 48.1962 35.8565 45.6106C36.082 44.7782 36.1696 43.9339 36.0983 43.0689C35.996 41.8033 35.3535 40.8804 34.254 40.226C34.1006 40.1344 33.9419 40.0516 33.7832 39.9687L33.7832 39.9687L33.7831 39.9686L33.7831 39.9686L33.783 39.9686L33.783 39.9686L33.783 39.9685L33.7829 39.9685L33.7829 39.9685L33.7829 39.9685L33.7828 39.9684C33.6486 39.8983 33.5142 39.8282 33.3831 39.7527C33.3404 39.7283 33.3116 39.6803 33.283 39.6324C33.2698 39.6104 33.2566 39.5884 33.2421 39.5687C33.2616 39.5579 33.2808 39.5459 33.3001 39.534L33.3002 39.5339L33.3002 39.5339L33.3003 39.5338C33.347 39.5048 33.394 39.4755 33.4454 39.4619C33.4929 39.4485 33.5456 39.4516 33.5982 39.4547C33.6211 39.4561 33.644 39.4575 33.6665 39.4575H42.7901C42.8093 39.4575 42.8287 39.4563 42.8481 39.4552L42.8483 39.4552C42.8919 39.4527 42.9351 39.4502 42.9741 39.4604C43.0357 39.4774 43.0944 39.5036 43.1527 39.5296C43.1757 39.5399 43.1987 39.5502 43.2219 39.5598C43.2048 39.5821 43.1892 39.6068 43.1737 39.6315C43.1405 39.6843 43.1071 39.7373 43.0586 39.7676C42.9007 39.8659 42.7392 39.9594 42.5777 40.053C42.337 40.1924 42.0963 40.3318 41.8672 40.4872C40.5155 41.4116 39.7276 42.7351 39.1119 44.1699C38.2736 46.1203 37.7203 48.1559 37.1671 50.1912L37.0465 50.6346C36.2591 53.5182 35.475 56.403 34.6909 59.2878C34.1791 61.1707 33.6673 63.0538 33.1546 64.9365C32.6469 66.8018 32.0138 68.6729 31.3805 70.5445L31.3805 70.5446C30.7347 72.4529 30.0889 74.3616 29.5757 76.265C29.5075 76.5187 29.4155 76.6241 29.1336 76.6122C28.9733 76.6061 28.8469 76.6069 28.746 76.6075H28.7459H28.7458H28.7457C28.5547 76.6086 28.4552 76.6092 28.3905 76.562C28.3202 76.5107 28.2912 76.4029 28.2305 76.178C28.2036 76.0781 28.1704 75.955 28.1246 75.8036C27.2182 72.8124 26.4387 69.815 25.6591 66.8175C24.8818 63.8288 24.1046 60.84 23.2015 57.8575C22.953 57.0363 22.7035 56.2161 22.4538 55.3952L22.4534 55.394L22.453 55.3927L22.4527 55.3915L22.4523 55.3902L22.4519 55.389L22.2771 54.8143C22.2606 54.7593 22.2401 54.7048 22.2129 54.6323C22.1961 54.5876 22.1766 54.5359 22.154 54.4731C22.0349 54.8418 21.9185 55.2007 21.8041 55.5535L21.8033 55.556C21.61 56.1521 21.4223 56.7308 21.237 57.31C19.2132 63.6308 17.1893 69.9516 15.1714 76.2739C15.0957 76.5113 14.9815 76.5885 14.7293 76.587L14.6962 76.5869C13.8536 76.5856 13.8433 76.5856 13.5986 75.7902C12.7296 72.9693 11.8619 70.1483 10.9941 67.3275C9.72536 63.2031 8.45669 59.0789 7.18436 54.9553C6.23327 51.8706 5.28218 48.7858 4.29103 45.713C3.87112 44.4087 3.36665 43.1297 2.60251 41.962C2.00307 41.0451 1.19443 40.3462 0.225534 39.8076C0.161172 39.7719 0.113691 39.7094 0.0661405 39.6468L0.0661333 39.6468H0.0661291C0.0446231 39.6185 0.0231028 39.5902 0 39.5643C0.0332663 39.553 0.0666807 39.5387 0.10015 39.5243H0.100154H0.100157H0.100161H0.100165H0.100169C0.172683 39.4932 0.245452 39.4619 0.317526 39.4619C4.7317 39.4575 9.14588 39.4575 13.5586 39.4589C13.604 39.4589 13.6501 39.463 13.7257 39.4697L13.7259 39.4697C13.7712 39.4737 13.8271 39.4786 13.8998 39.4842C13.852 39.5441 13.8115 39.6003 13.7741 39.6521C13.7015 39.7528 13.6409 39.8369 13.5615 39.8996C12.3775 40.8329 11.7558 41.9962 11.9843 43.4948C12.054 43.9518 12.146 44.4102 12.2811 44.8539C13.713 49.5556 15.1516 54.2551 16.5902 58.9543L16.5904 58.9552L17.2427 61.0862C17.2566 61.1323 17.2756 61.1767 17.3034 61.2416L17.3034 61.2417C17.3203 61.2811 17.3403 61.328 17.3644 61.3874C17.3956 61.3008 17.4235 61.2246 17.4491 61.1549C17.4954 61.0286 17.5338 60.9237 17.5692 60.8176L18.2397 58.7576L18.2401 58.7564C19.1046 56.1009 19.969 53.4456 20.826 50.7874C20.8809 50.6168 20.8972 50.4061 20.8453 50.2384L20.5791 49.3716L20.5791 49.3715C19.9654 47.3718 19.3513 45.371 18.6953 43.385C18.455 42.6564 18.1004 41.9516 17.719 41.278C17.3451 40.6192 16.716 40.1756 16.0498 39.7928C15.9944 39.7606 15.9554 39.7017 15.9166 39.643L15.9166 39.643C15.8982 39.6152 15.8799 39.5876 15.8599 39.5628C15.8906 39.5518 15.9212 39.5375 15.9519 39.5232C16.0162 39.4933 16.0805 39.4634 16.1448 39.4634C19.5468 39.4598 22.9497 39.4601 26.3521 39.4603L28.9036 39.4604C28.9344 39.4604 28.9651 39.4645 29.0184 39.4716L29.0185 39.4716C29.0372 39.4741 29.0588 39.477 29.0841 39.4802L29.141 39.4871C29.1118 39.529 29.087 39.5688 29.0641 39.6058C29.017 39.6815 28.9772 39.7454 28.9214 39.7913C28.808 39.8865 28.6837 39.971 28.5598 40.0552L28.5597 40.0552C28.5119 40.0878 28.464 40.1203 28.4169 40.1533C27.1394 41.0466 26.7714 42.2736 27.1483 43.6847C27.5373 45.1395 27.981 46.5815 28.4247 48.0236L28.4248 48.0238L28.4253 48.0254L28.4258 48.027C28.5284 48.3605 28.631 48.694 28.733 49.0277C29.541 51.6797 30.3556 54.3298 31.17 56.9796L31.171 56.9828L31.8132 59.0727C31.8462 59.1789 31.8828 59.2844 31.9195 59.3902C31.9356 59.4366 31.9517 59.4831 31.9676 59.5297L32.0403 59.5178L32.0432 59.5149ZM70.7033 63.2958C70.6861 63.3162 70.6688 63.3367 70.6505 63.3555H70.6445L70.692 63.4252H70.9932H82.5309C82.7847 63.4252 83.0384 63.4296 83.2921 63.4341C84.2521 63.4504 85.0533 63.7487 85.494 64.6805C85.496 64.6837 85.4974 64.6876 85.4988 64.6913C85.4997 64.6936 85.5007 64.6958 85.5018 64.6978L85.5027 64.6993L85.5042 64.7012L85.5059 64.7027C85.5176 64.7113 85.5296 64.7216 85.5418 64.7319C85.5758 64.7608 85.6107 64.7906 85.6424 64.7873C85.681 64.7843 85.724 64.7205 85.7462 64.673C85.7665 64.6294 85.7767 64.5812 85.787 64.5334L85.787 64.5331L85.7871 64.5328C85.7911 64.5141 85.7951 64.4955 85.7997 64.4772C86.0049 63.6391 86.2098 62.8007 86.4146 61.9623C86.6185 61.1278 86.8224 60.2933 87.0267 59.4591L87.1811 58.8305C87.4519 57.7284 87.7226 56.6261 87.9882 55.5227C88.0044 55.4539 87.9999 55.3803 87.9954 55.3066C87.9943 55.2891 87.9932 55.2716 87.9925 55.2541C87.9917 55.2373 87.9912 55.2204 87.9912 55.2037L87.9125 55.1963C87.8867 55.2283 87.8605 55.26 87.8343 55.2918C87.8149 55.3152 87.7955 55.3387 87.7763 55.3623C87.768 55.3725 87.7597 55.3827 87.7515 55.3929C87.7469 55.3986 87.7423 55.4043 87.7377 55.4101C87.7272 55.4233 87.7167 55.4366 87.7063 55.45C86.5534 56.9352 85.2863 58.3151 83.8648 59.5511C83.0206 60.2841 82.1585 60.9889 81.1777 61.5349C80.7118 61.7931 80.237 62.0334 79.691 62.0794C79.142 62.1254 78.8022 61.8954 78.7088 61.3568C78.6465 60.9933 78.6183 60.6179 78.6183 60.2485L78.6165 58.5723V58.5623C78.6147 56.899 78.6138 56.0674 78.6138 55.2357C78.6138 54.4294 78.6147 53.623 78.6163 52.0584L78.6164 51.9929L78.6165 51.9303L78.6165 51.9124L78.6183 50.2212C78.6198 49.6975 78.6524 49.1737 78.7058 48.6529C78.8052 47.7018 79.0649 46.8027 79.7697 46.1098C79.9621 45.9202 80.1809 45.7578 80.3998 45.5952C80.5134 45.5108 80.6271 45.4264 80.7371 45.3382C80.7832 45.3011 80.822 45.2544 80.8606 45.2079C80.879 45.1856 80.8974 45.1635 80.9166 45.1423L80.8662 45.0815H80.6406H70.9279C70.9172 45.0815 70.9064 45.0808 70.8956 45.0801C70.8719 45.0785 70.8484 45.0769 70.827 45.083C70.7886 45.094 70.7525 45.1107 70.7159 45.1276L70.7158 45.1277C70.703 45.1336 70.6902 45.1396 70.6772 45.1453C70.6865 45.1613 70.6952 45.178 70.7039 45.1948C70.7242 45.2338 70.7445 45.2729 70.7736 45.3041C70.795 45.3274 70.8254 45.3425 70.8558 45.3576L70.8753 45.3674C70.8847 45.3722 70.8939 45.3772 70.9027 45.3827C71.8271 45.9436 72.4888 46.724 72.6773 47.7998C72.8212 48.6188 72.9028 49.4601 72.9058 50.291L72.9088 51.0198C72.9168 52.9515 72.9195 53.5957 72.9195 54.24C72.9195 54.5623 72.9188 54.8847 72.9178 55.3682V55.3688V55.3706C72.9166 55.9659 72.9148 56.8054 72.9132 58.189C72.9132 58.738 72.8791 59.287 72.8346 59.8345C72.7173 61.2782 72.1283 62.4459 70.8241 63.1819C70.7774 63.2082 70.7405 63.2519 70.7033 63.2958ZM40.0665 66.0183C40.6405 64.265 41.2117 62.5192 41.7816 60.7776L41.7967 60.7314C42.4858 58.6255 43.1729 56.5256 43.8605 54.4257C43.8931 54.4257 43.9258 54.4272 43.9584 54.4287C45.1825 58.2805 46.4066 62.1323 47.6426 66.0183H40.0665ZM78.3467 18.2779C78.3467 19.2919 77.8487 20.1893 77.0842 20.7382C75.1974 22.1661 75.1982 25.008 77.0863 26.4347C77.8496 26.9838 78.3468 27.8805 78.3468 28.8936C78.3468 30.5644 76.9944 31.9188 75.3262 31.9188C73.6581 31.9188 72.3057 30.5644 72.3057 28.8936C72.3057 27.8787 72.8047 26.9805 73.5703 26.4317C75.453 25.0052 75.454 22.1698 73.5732 20.7418C72.8059 20.1932 72.3057 19.2941 72.3057 18.2779C72.3057 16.6071 73.658 15.2526 75.3262 15.2526C76.9944 15.2526 78.3467 16.6071 78.3467 18.2779Z" fill="#E1FD05"/>
</svg>
