<svg width="9" height="26" viewBox="0 0 9 26" fill="none" xmlns="http://www.w3.org/2000/svg">
<path fill-rule="evenodd" clip-rule="evenodd" d="M9 5.40137C9 6.88713 8.26868 8.20209 7.14637 9.0059H7.34839C4.62498 10.985 4.46999 14.8796 6.88343 17.0767C8.1531 17.8558 9 19.2569 9 20.8557C9 23.3027 7.01632 25.2864 4.56933 25.2864C2.12234 25.2864 0.138672 23.3027 0.138672 20.8557C0.138672 19.0756 1.18853 17.5406 2.70286 16.8362C4.85453 14.6053 4.61704 10.9147 1.99038 9.0059H1.99229C0.869989 8.20209 0.138672 6.88713 0.138672 5.40137C0.138672 2.95438 2.12234 0.970703 4.56933 0.970703C7.01632 0.970703 9 2.95438 9 5.40137Z" fill="#E1FD05"/>
</svg>
