<svg width="3521" height="381" viewBox="0 0 3521 381" fill="none" xmlns="http://www.w3.org/2000/svg">
<path fill-rule="evenodd" clip-rule="evenodd" d="M1230.9 360.669V360.771C1286.69 360.771 1342.47 360.771 1398.26 360.785C1402.27 360.785 1406.27 361.005 1410.28 361.224L1411.11 361.269C1411.95 361.315 1412.78 361.359 1413.61 361.401C1425.04 361.974 1433.49 367.218 1438.86 377.391C1439.25 378.132 1440 378.675 1440.75 379.221C1441.1 379.477 1441.46 379.734 1441.78 380.013C1441.95 379.673 1442.15 379.34 1442.34 379.006V379.004L1442.35 379.002C1442.78 378.266 1443.21 377.529 1443.41 376.732C1445.38 368.827 1447.31 360.916 1449.24 353.003L1449.25 352.937L1449.27 352.883C1450.34 348.488 1451.41 344.091 1452.49 339.695C1455.05 329.289 1457.61 318.884 1460.16 308.48C1465.01 288.774 1469.86 269.07 1474.68 249.359C1474.89 248.468 1474.83 247.517 1474.78 246.566C1474.75 246.124 1474.72 245.683 1474.72 245.247H1474.69L1473.51 245.09C1471.86 247.093 1470.23 249.103 1468.6 251.112C1465.07 255.452 1461.55 259.789 1457.93 264.059C1437.06 288.703 1413.97 310.997 1386.97 328.878C1379.43 333.878 1370.99 338.076 1362.38 340.798C1351.14 344.337 1344.31 340.383 1343.13 328.835C1342.68 324.465 1342.47 320.066 1342.47 315.682C1342.43 234.931 1342.38 154.181 1342.53 73.4301C1342.54 64.7762 1343.21 56.0793 1344.34 47.5114C1346.16 33.7855 1351.62 21.6787 1362.55 12.6093C1364.47 11.0188 1366.52 9.60277 1368.58 8.18632V8.18531C1369.86 7.3054 1371.14 6.42491 1372.38 5.50278C1372.97 5.07013 1373.44 4.4891 1373.91 3.90687V3.90551C1374.14 3.62054 1374.37 3.33531 1374.61 3.06708C1374.32 2.95863 1374.03 2.84775 1373.74 2.73691V2.73547C1373.03 2.46608 1372.33 2.19703 1371.61 1.96385C1371.38 1.89519 1371.13 1.91383 1370.88 1.93241C1370.76 1.94098 1370.65 1.94953 1370.54 1.94953H1234.64C1234.36 1.94953 1234.07 1.92619 1233.78 1.90283C1233.06 1.84432 1232.33 1.78563 1231.85 2.0928C1231.27 2.46532 1230.92 3.79779 1231.13 4.51417C1231.26 4.95893 1231.89 5.27063 1232.5 5.57076C1232.72 5.67665 1232.93 5.78127 1233.12 5.88963C1247.61 14.4146 1256.69 26.8223 1259.5 43.428C1260.67 50.4343 1261.74 57.5694 1261.77 64.6616C1261.94 141.257 1261.94 217.838 1261.84 294.434C1261.84 301.426 1261.13 308.446 1260.21 315.381C1259.99 317.076 1259.71 318.738 1259.38 320.365C1256.68 314.279 1254.46 307.977 1252.39 301.611L1156.78 7.09177C1154.57 0.311006 1154.5 0.308387 1147.68 0.0399721L1147.02 0.0139143C1143.26 -0.14369 1141.73 1.01685 1140.6 4.55578C1117.89 76.0507 1095.11 147.531 1072.22 218.969L1071.15 222.308L1070.06 225.72C1062.33 249.876 1054.6 274.027 1046.25 297.986C1037.97 321.77 1025.18 342.788 1003.32 357.402C1002.78 357.769 1002.43 358.414 1002.03 359.158V359.159C1001.82 359.548 1001.6 359.965 1001.32 360.383H1089.13C1089.3 360.039 1089.48 359.709 1089.66 359.365C1089.53 359.281 1089.41 359.195 1089.28 359.109C1089.02 358.925 1088.76 358.739 1088.5 358.552C1087.61 357.909 1086.71 357.266 1085.74 356.743C1069.83 348.09 1063.08 335.868 1066.29 318.503C1067.79 310.42 1070.04 302.478 1072.29 294.531V294.526C1073.4 290.6 1074.51 286.673 1075.54 282.727C1076.04 280.807 1077.04 280.162 1079.06 280.177C1106.35 280.234 1133.66 280.234 1160.95 280.177C1162.91 280.177 1163.9 280.678 1164.47 282.655C1165.41 285.894 1166.43 289.112 1167.45 292.33C1169.11 297.553 1170.77 302.776 1172.07 308.087C1173.63 314.491 1174.61 321.125 1174.89 327.701C1175.43 340.969 1169.81 351.098 1157.33 357.202C1156.54 357.587 1155.87 358.204 1155.2 358.822C1154.89 359.101 1154.59 359.38 1154.27 359.638C1154.33 359.733 1154.38 359.828 1154.44 359.923C1154.58 360.171 1154.71 360.42 1154.86 360.669H1159.44H1230.9ZM1099.56 207.75L1099.53 207.851C1094.04 224.644 1088.54 241.478 1083.02 258.384H1156.06C1144.14 220.86 1132.34 183.666 1120.54 146.471C1120.23 146.457 1119.91 146.442 1119.6 146.442C1112.92 166.858 1106.25 187.275 1099.56 207.75ZM42.0274 310.853C56.2897 326.47 71.7966 338.907 88.5481 348.162L88.5767 348.191C105.328 357.447 122.094 362.834 138.903 364.338C171.562 367.261 200.058 358.679 224.377 338.606C248.71 318.533 266.649 290.293 278.207 253.886L277.249 253.8C257.951 272.985 240.484 286.081 224.834 293.115C209.199 300.136 193.134 302.916 176.64 301.44C146.198 298.718 121.937 283.301 103.826 255.205C85.7157 227.108 78.7633 189.627 82.9404 142.79C86.4738 103.317 96.273 74.0029 112.366 54.8755C128.446 35.7338 147.114 27.1229 168.357 29.0284C207.024 32.4957 248.567 54.46 282.27 120.883L283.214 120.969L282.197 33.6563C288.78 33.2853 295.74 33.0998 299.99 33.0998H331.691V298.204C331.691 311.858 328.286 324.137 321.463 335.055C314.639 345.973 305.269 354.168 293.338 359.627V360.644H449.795V359.627C438.208 354.168 429.01 345.973 422.186 335.055C415.377 324.137 411.958 311.858 411.958 298.204V33.0998H443.143C446.165 33.0998 449.102 33.1909 451.955 33.3731C453.912 36.8892 455.747 40.4731 457.272 44.1721C476.759 91.443 496.097 138.764 515.436 186.088L515.445 186.112L519.686 196.489C520.13 197.564 520.444 198.767 520.444 199.914C520.393 209.511 520.369 219.109 520.345 228.708V228.71V228.712V228.714V228.716V228.719V228.72V228.723V228.725V228.728V228.729V228.732V228.733V228.735C520.282 254.064 520.218 279.396 519.658 304.72C519.171 326.713 510.917 345.196 491.162 357.145C490.589 357.493 490.171 358.111 489.632 358.908C489.349 359.326 489.033 359.794 488.644 360.297H630.435L630.423 360.311L630.452 360.297H630.435L631.21 359.366C630.841 358.965 630.484 358.551 630.127 358.138V358.137C629.338 357.222 628.55 356.31 627.634 355.54C615.088 344.909 604.717 332.831 602.557 315.796C601.512 307.557 600.869 299.233 600.783 290.937C600.687 282.033 600.741 273.127 600.795 264.223V264.213V264.212V264.211V264.209V264.208V264.206V264.205V264.203V264.202V264.201V264.199V264.198V264.196V264.195V264.194V264.192V264.189V264.188V264.186V264.185V264.184C600.878 250.633 600.96 237.086 600.511 223.554C599.953 206.877 602.829 191.389 608.98 175.8C618.502 151.683 627.548 127.377 636.594 103.071C642.252 87.8687 647.91 72.6666 653.684 57.5112C661.981 35.7618 673.139 16.1043 695.67 5.67376C696.212 5.42106 696.558 4.74038 696.993 3.88734C697.057 3.76172 697.123 3.63236 697.191 3.50007C697.25 3.57663 697.309 3.65372 697.367 3.7308L697.368 3.73146L697.369 3.73356L697.372 3.73639C697.831 4.34068 698.288 4.94462 698.909 5.28991C708.25 10.4908 716.047 17.2392 721.826 26.0936C729.193 37.3695 734.057 49.7199 738.105 62.3139C747.661 91.9865 756.831 121.774 766 151.561C778.236 191.278 790.436 231 802.637 270.724L802.694 270.91L802.737 271.05L802.836 271.371C811.167 298.497 819.499 325.623 827.842 352.75C830.201 360.43 830.301 360.43 838.424 360.443L838.743 360.444C841.175 360.458 842.276 359.713 843.006 357.42C862.455 296.39 881.961 235.373 901.467 174.357L901.472 174.342L901.477 174.328L901.481 174.313L901.486 174.299C903.272 168.706 905.082 163.118 906.945 157.363C908.051 153.948 909.176 150.474 910.326 146.904C910.543 147.505 910.728 148 910.889 148.429L910.894 148.441V148.442C911.157 149.142 911.355 149.668 911.514 150.2L913.185 155.705C915.603 163.666 918.019 171.621 920.426 179.586C929.132 208.383 936.625 237.242 944.119 266.1L944.12 266.103V266.106C951.636 295.051 959.152 323.995 967.891 352.879C968.331 354.336 968.65 355.52 968.909 356.483L968.911 356.489V356.491L968.912 356.494V356.495C969.497 358.667 969.777 359.708 970.455 360.203C971.079 360.658 972.038 360.652 973.879 360.641C974.852 360.636 976.073 360.628 977.618 360.687C980.336 360.802 981.223 359.784 981.881 357.334C986.829 338.954 993.056 320.522 999.281 302.095L999.282 302.093L999.283 302.091V302.089L999.284 302.087V302.086V302.084L999.285 302.083V302.082L999.286 302.081V302.079V302.078L999.287 302.077V302.075V302.074L999.288 302.073V302.072V302.07L999.289 302.069V302.068L999.29 302.066V302.065C1005.39 284.003 1011.49 265.945 1016.39 247.943C1021.33 229.757 1026.27 211.57 1031.2 193.383L1031.27 193.137C1038.8 165.367 1046.34 137.598 1053.91 109.839C1054.3 108.412 1054.68 106.986 1055.07 105.559C1060.41 85.9047 1065.74 66.2475 1073.82 47.4132C1079.76 33.5583 1087.35 20.7781 1100.39 11.852C1102.59 10.3517 1104.92 9.00525 1107.24 7.65926C1108.79 6.75581 1110.35 5.85255 1111.87 4.90306C1112.34 4.61054 1112.66 4.09904 1112.98 3.58984V3.58869V3.58756C1113.13 3.34934 1113.28 3.1116 1113.45 2.89719C1113.22 2.80388 1113 2.70483 1112.78 2.60556C1112.22 2.35425 1111.65 2.10157 1111.06 1.93724C1110.68 1.8382 1110.27 1.86239 1109.85 1.88677C1109.66 1.89766 1109.47 1.90858 1109.28 1.90858H1021.32C1021.1 1.90858 1020.88 1.89542 1020.66 1.88226C1020.16 1.85201 1019.65 1.82176 1019.19 1.95157C1018.69 2.08327 1018.24 2.36543 1017.79 2.64605C1017.6 2.76225 1017.42 2.87828 1017.23 2.98316C1017.37 3.17289 1017.5 3.38541 1017.62 3.59827C1017.9 4.06046 1018.18 4.52436 1018.59 4.75978C1019.85 5.48863 1021.15 6.16632 1022.44 6.84388L1022.45 6.84437C1023.98 7.6451 1025.51 8.44567 1026.99 9.3303C1037.59 15.6488 1043.78 24.5606 1044.77 36.7821C1045.45 45.1351 1044.61 53.2875 1042.44 61.3253C1035.67 86.2902 1028.84 111.236 1022 136.179L1021.99 136.236L1021.76 137.05C1020.23 142.637 1018.7 148.223 1017.17 153.81C1014.63 163.104 1012.07 172.385 1009.51 181.665C1008.23 186.306 1006.95 190.947 1005.67 195.59L1005.64 195.618L1004.94 195.733C1004.79 195.283 1004.63 194.834 1004.48 194.386V194.385V194.383V194.381V194.379V194.377L1004.47 194.375C1004.12 193.357 1003.77 192.342 1003.45 191.32C1001.42 184.684 999.382 178.049 997.346 171.413L997.253 171.11L997.249 171.096L997.239 171.064L997.231 171.037L997.224 171.015C989.381 145.459 981.537 119.899 973.756 94.3219C972.771 91.0922 971.779 87.864 970.787 84.6358L970.786 84.6326L970.785 84.6294L970.784 84.6262V84.6247V84.6232L970.783 84.6218V84.6205V84.6193L970.782 84.6181C966.505 70.696 962.227 56.7729 958.478 42.728C954.844 29.1025 958.392 17.2535 970.709 8.62825C971.163 8.30906 971.624 7.99543 972.085 7.68147C973.28 6.868 974.479 6.05237 975.573 5.1323C976.111 4.68943 976.494 4.07189 976.948 3.34053C977.17 2.9835 977.408 2.59934 977.69 2.19514C977.191 2.13662 976.812 2.086 976.508 2.04549C975.995 1.97688 975.698 1.93724 975.401 1.93724C967.209 1.93724 959.016 1.93667 950.822 1.93609H950.821H950.819H950.817H950.816H950.814H950.813H950.811H950.809H950.808H950.806H950.805H950.803H950.801C917.998 1.9338 885.19 1.93151 852.39 1.96589C851.77 1.96589 851.151 2.25477 850.531 2.54364C850.235 2.68151 849.939 2.81938 849.643 2.92585C849.836 3.16512 850.013 3.43247 850.19 3.70037C850.565 4.26654 850.94 4.83545 851.474 5.14663C857.898 8.84316 863.963 13.1271 867.568 19.4886C871.244 25.9934 874.663 32.799 876.981 39.8339C883.305 59.012 889.226 78.3323 895.143 97.6419C895.998 100.433 896.853 103.223 897.709 106.013C898.21 107.632 898.052 109.667 897.523 111.314C889.264 136.972 880.933 162.602 872.602 188.234L872.484 188.597L872.389 188.889C870.3 195.315 868.211 201.742 866.123 208.169C865.782 209.194 865.411 210.208 864.965 211.428C864.856 211.725 864.743 212.034 864.624 212.359C864.474 212.769 864.317 213.205 864.149 213.671C863.918 213.102 863.726 212.651 863.564 212.273L863.561 212.266L863.56 212.263C863.293 211.637 863.109 211.208 862.976 210.763C860.875 203.887 858.773 197.012 856.672 190.136C842.807 144.773 828.94 99.4063 815.139 54.0182C813.837 49.7343 812.95 45.307 812.278 40.8941C810.075 26.4232 816.069 15.1903 827.485 6.17822C828.25 5.57264 828.834 4.76085 829.534 3.78824L829.535 3.78729C829.895 3.28743 830.285 2.74511 830.746 2.16648C830.044 2.11278 829.504 2.06513 829.067 2.02652C828.338 1.96212 827.894 1.92291 827.456 1.92291C784.912 1.90858 742.354 1.90858 699.796 1.95157C699.109 1.95157 698.416 2.24599 697.726 2.54303C697.751 2.50256 697.776 2.46201 697.801 2.42139H613.6L612.799 3.26672C613.116 3.61136 613.416 3.98615 613.716 4.36154C614.365 5.17216 615.015 5.98578 615.846 6.50476C621.826 10.2443 627.591 14.4279 629.236 21.5774C630.581 27.3945 631.682 33.6556 630.896 39.4583C629.579 49.1581 627.62 58.9869 624.286 68.1709C615.993 91.0631 607.3 113.814 598.608 136.563L598.598 136.588L598.591 136.606C595.549 144.568 592.507 152.53 589.482 160.498C589.334 160.897 589.083 161.26 588.785 161.692L588.784 161.694L588.782 161.697C588.621 161.931 588.446 162.185 588.266 162.475C588.108 162.215 587.964 161.989 587.833 161.786C587.562 161.362 587.352 161.033 587.207 160.684C583.603 152.102 579.992 143.522 576.38 134.942L576.376 134.932L576.372 134.922L576.368 134.912L576.364 134.903L576.36 134.893L576.356 134.883L576.352 134.873L576.348 134.863L576.344 134.854C564.672 107.123 552.999 79.3867 541.559 51.5509C538.941 45.1607 537.496 38.1402 536.438 31.2772C534.964 21.6777 539.041 14.1414 546.995 8.68256C547.644 8.22994 548.342 7.83971 549.038 7.45005C549.907 6.96396 550.774 6.47875 551.544 5.87435C552.139 5.40161 552.59 4.74169 553.17 3.8946C553.469 3.45814 553.801 2.97153 554.205 2.43571H523.93L523.925 2.38135H272.25H272.236H267.961H187.343C186.915 2.34102 186.49 2.30204 186.067 2.26441C165.139 0.38749 144.424 2.49365 123.911 8.5829C103.397 14.6721 84.3996 24.2717 66.9328 37.3815C49.4661 50.4912 34.746 68.4724 22.8011 91.3537C10.8419 114.221 3.57478 140.211 0.97122 169.325C-1.63234 198.424 0.999831 225.389 8.85343 250.204C16.707 275.034 27.765 295.236 42.0274 310.853ZM236.831 90.9946H147.237L146.865 91.6537C147.112 91.9011 147.351 92.1622 147.59 92.4231L147.591 92.4233C148.086 92.9631 148.58 93.5022 149.139 93.9175C157.05 99.7488 162.901 107.5 164.732 118.16C165.962 125.352 166.692 132.788 166.72 140.11C166.776 157.343 166.815 164.708 166.836 168.596V168.599V168.606V168.632C166.847 170.723 166.853 171.803 166.853 172.883C166.853 174.03 166.846 175.177 166.833 177.537V177.539V177.549C166.811 181.531 166.769 188.963 166.706 205.644C166.678 213.553 165.648 221.562 164.274 229.328C162.4 239.959 156.506 247.481 148.138 252.553C147.574 252.894 147.09 253.393 146.605 253.893L146.604 253.894H146.603V253.895L146.602 253.896C146.373 254.131 146.144 254.368 145.906 254.588L146.307 255.118H236.873L237.245 254.473C236.998 254.211 236.758 253.934 236.518 253.657L236.517 253.656C236.037 253.102 235.557 252.548 235.014 252.109C225.458 244.386 219.65 234.07 218.506 220.688C218.005 214.9 217.619 209.054 217.619 203.237C217.589 185.165 217.576 181.713 217.572 181.432C217.574 180.293 217.576 176.97 217.576 168.335C217.576 165.581 217.559 162.827 217.542 160.073C217.5 153.386 217.459 146.701 217.661 140.024C217.876 133.275 218.377 126.47 219.435 119.836C221.209 108.675 227.189 100.537 235.071 94.0034C235.618 93.5538 236.091 92.9775 236.564 92.4018C236.784 92.1337 237.004 91.8656 237.231 91.6107L236.831 90.9946ZM1357.41 242.415C1357.49 242.32 1357.58 242.223 1357.66 242.126C1358.02 241.702 1358.37 241.28 1358.82 241.026C1371.4 233.919 1377.07 222.643 1378.2 208.703C1378.63 203.416 1378.96 198.114 1378.96 192.813C1378.98 179.485 1379 171.385 1379.01 165.639C1379.02 160.934 1379.02 157.807 1379.02 154.68C1379.02 148.509 1379 142.338 1378.92 124.032V124.019V123.771V123.724L1378.89 116.547C1378.86 108.524 1378.08 100.4 1376.69 92.4911C1374.87 82.1035 1368.49 74.5672 1359.58 69.1513C1359.44 69.0625 1359.28 68.9856 1359.13 68.9089C1358.83 68.7628 1358.54 68.6174 1358.33 68.392C1358.05 68.091 1357.86 67.7128 1357.66 67.336C1357.58 67.1747 1357.49 67.0136 1357.4 66.8589C1357.53 66.8034 1357.65 66.7459 1357.78 66.6888C1358.13 66.5248 1358.48 66.3634 1358.85 66.2572C1359.06 66.1981 1359.28 66.2134 1359.51 66.2288C1359.61 66.2358 1359.72 66.2428 1359.82 66.2428H1453.46H1455.64L1456.13 66.8303C1455.94 67.0342 1455.76 67.2486 1455.58 67.4633C1455.21 67.9124 1454.84 68.3629 1454.39 68.7215C1453.33 69.5732 1452.24 70.3881 1451.14 71.2028C1449.03 72.7728 1446.92 74.3419 1445.07 76.1719C1438.27 82.8629 1435.77 91.5454 1434.81 100.729C1434.3 105.758 1433.98 110.816 1433.97 115.874L1433.95 131.908V132.169V133.156V134.205C1433.93 148.926 1433.92 156.611 1433.92 164.295C1433.92 172.326 1433.93 180.357 1433.95 196.418L1433.97 212.7C1433.97 216.268 1434.24 219.892 1434.84 223.403C1435.74 228.604 1439.02 230.824 1444.31 230.38C1449.57 229.936 1454.15 227.615 1458.64 225.122C1468.1 219.849 1476.41 213.044 1484.55 205.966C1498.25 194.031 1510.47 180.706 1521.59 166.364C1521.99 165.847 1522.4 165.342 1522.82 164.836C1523.07 164.53 1523.33 164.223 1523.57 163.914L1524.33 163.986C1524.33 164.313 1524.35 164.644 1524.37 164.975V164.98C1524.42 165.692 1524.46 166.402 1524.3 167.066C1521.75 177.705 1519.14 188.333 1516.53 198.959L1516.49 199.141L1516.45 199.318L1516.4 199.489C1515.95 201.352 1515.49 203.215 1515.03 205.078C1513.06 213.152 1511.09 221.23 1509.12 229.308C1507.15 237.385 1505.18 245.461 1503.2 253.534C1503.18 253.627 1503.16 253.721 1503.14 253.816C1503.12 253.902 1503.1 253.989 1503.08 254.076C1502.98 254.538 1502.88 255.004 1502.69 255.425C1502.47 255.883 1502.06 256.5 1501.69 256.528C1501.38 256.56 1501.05 256.273 1500.72 255.993C1500.6 255.894 1500.48 255.795 1500.37 255.712C1500.31 255.669 1500.3 255.568 1500.26 255.497C1496.01 246.499 1488.28 243.619 1479.03 243.461C1476.58 243.418 1474.14 243.375 1471.69 243.375H1360.45H1357.55L1357.09 242.702H1357.15C1357.24 242.61 1357.32 242.514 1357.41 242.415ZM715.9 209.662C724.139 203.567 729.483 193.77 729.483 182.723C729.483 164.239 714.521 149.254 696.066 149.254C677.61 149.254 662.648 164.239 662.648 182.723C662.648 194.009 668.226 203.99 676.77 210.053C697.449 225.843 697.449 257.055 676.768 272.844C668.227 278.907 662.652 288.887 662.652 300.17C662.652 318.655 677.614 333.639 696.069 333.639C714.525 333.639 729.487 318.655 729.487 300.17C729.487 289.02 724.043 279.144 715.673 273.062C694.532 257.213 694.61 225.394 715.904 209.662H715.9ZM3301.51 245.09L3302.69 245.247H3302.72C3302.72 245.505 3302.73 245.765 3302.74 246.025C3302.75 246.205 3302.77 246.385 3302.78 246.566C3302.84 247.517 3302.89 248.468 3302.68 249.359C3297.91 268.867 3293.11 288.368 3288.31 307.871L3288.19 308.366L3287.98 309.234L3287.74 310.187C3285.33 320.022 3282.91 329.858 3280.49 339.695L3279.84 342.368C3279.58 343.412 3279.32 344.456 3279.07 345.5C3278.47 347.955 3277.87 350.41 3277.27 352.865L3277.24 352.985C3275.31 360.904 3273.38 368.821 3271.41 376.732C3271.21 377.53 3270.78 378.266 3270.34 379.003C3270.27 379.123 3270.2 379.243 3270.13 379.364C3270.01 379.579 3269.89 379.795 3269.78 380.013C3269.46 379.734 3269.1 379.477 3268.75 379.221C3268 378.674 3267.25 378.132 3266.86 377.391C3261.49 367.218 3253.04 361.974 3241.61 361.401L3240.96 361.368L3240.5 361.344L3239.87 361.31L3238.28 361.224C3234.27 361.005 3230.27 360.785 3226.26 360.785C3170.47 360.771 3114.69 360.771 3058.9 360.771V360.669H2987.44H2982.86C2982.73 360.446 2982.61 360.223 2982.48 360.001C2982.41 359.88 2982.34 359.759 2982.27 359.638C2982.36 359.57 2982.44 359.5 2982.52 359.43C2982.61 359.356 2982.69 359.281 2982.78 359.205C2982.91 359.08 2983.05 358.953 2983.19 358.826L2983.2 358.822C2983.87 358.204 2984.54 357.587 2985.33 357.202C2997.81 351.098 3003.43 340.969 3002.89 327.701C3002.61 321.125 3001.63 314.491 3000.07 308.087C2998.77 302.776 2997.11 297.553 2995.45 292.33C2994.43 289.112 2993.41 285.894 2992.47 282.655C2991.9 280.678 2990.91 280.177 2988.95 280.177C2961.66 280.234 2934.35 280.234 2907.06 280.177C2905.04 280.162 2904.04 280.807 2903.54 282.727C2902.51 286.675 2901.4 290.604 2900.29 294.532V294.537C2898.04 302.482 2895.79 310.422 2894.29 318.503C2891.08 335.868 2897.83 348.09 2913.74 356.743C2914.71 357.266 2915.61 357.909 2916.5 358.553C2916.66 358.667 2916.82 358.782 2916.98 358.896C2917.07 358.956 2917.15 359.016 2917.24 359.076L2917.44 359.214L2917.66 359.365C2917.48 359.709 2917.3 360.039 2917.13 360.383H2829.32C2829.6 359.964 2829.82 359.548 2830.03 359.158C2830.43 358.414 2830.78 357.769 2831.32 357.402C2853.18 342.788 2865.97 321.77 2874.25 297.986C2882.6 274.034 2890.32 249.891 2898.05 225.742L2898.06 225.717L2899.29 221.851L2900.22 218.969C2923.11 147.531 2945.89 76.0507 2968.6 4.55578C2969.73 1.01685 2971.26 -0.14369 2975.02 0.0139143L2975.68 0.0399721C2982.5 0.308387 2982.57 0.311006 2984.78 7.09177L3080.39 301.611C3082.46 307.977 3084.68 314.279 3087.38 320.365C3087.71 318.738 3087.99 317.076 3088.21 315.381C3089.13 308.446 3089.84 301.426 3089.84 294.434C3089.94 217.838 3089.94 141.257 3089.77 64.6616C3089.74 57.5694 3088.67 50.4343 3087.5 43.428C3084.69 26.8223 3075.61 14.4146 3061.12 5.88963C3060.93 5.78129 3060.72 5.67685 3060.5 5.57098C3059.89 5.27078 3059.26 4.95904 3059.13 4.51417C3058.92 3.79779 3059.27 2.46532 3059.85 2.0928C3060.33 1.78563 3061.06 1.84432 3061.78 1.90283C3062.07 1.92618 3062.36 1.94953 3062.64 1.94953H3198.54C3198.65 1.94953 3198.76 1.94098 3198.88 1.93241C3199.13 1.91383 3199.38 1.89519 3199.61 1.96385C3200.33 2.19681 3201.03 2.46556 3201.74 2.73468L3201.75 2.74165L3201.76 2.7428C3202.04 2.8516 3202.33 2.96062 3202.61 3.06708C3202.37 3.33526 3202.14 3.62044 3201.91 3.90536C3201.44 4.4881 3200.97 5.06976 3200.38 5.50278C3199.14 6.42497 3197.86 7.30509 3196.58 8.18506V8.18644C3194.52 9.60268 3192.47 11.0191 3190.55 12.6093C3179.62 21.6787 3174.16 33.7855 3172.34 47.5114C3171.21 56.0793 3170.54 64.7762 3170.53 73.4301C3170.38 154.181 3170.43 234.931 3170.47 315.682C3170.47 320.066 3170.68 324.465 3171.13 328.835C3172.31 340.383 3179.14 344.337 3190.38 340.798C3198.99 338.076 3207.43 333.878 3214.97 328.878C3241.97 310.997 3265.06 288.703 3285.93 264.059C3289.54 259.79 3293.07 255.454 3296.59 251.115C3298.23 249.105 3299.86 247.094 3301.51 245.09ZM2833.67 195.59C2834.95 190.947 2836.23 186.306 2837.51 181.665L2837.62 181.265C2840.14 172.118 2842.66 162.97 2845.17 153.81C2846.77 147.977 2848.37 142.144 2849.97 136.311V136.309V136.306V136.304V136.302V136.3V136.292V136.284L2849.98 136.276V136.268V136.26V136.252C2856.83 111.285 2863.67 86.3147 2870.44 61.3253C2872.61 53.2875 2873.45 45.1351 2872.77 36.7821C2871.78 24.5606 2865.59 15.6488 2854.99 9.3303C2853.51 8.4454 2851.98 7.6446 2850.44 6.84361C2849.15 6.16614 2847.85 5.48853 2846.59 4.75978C2846.18 4.5243 2845.9 4.06034 2845.62 3.59801V3.5966C2845.5 3.38438 2845.37 3.17232 2845.23 2.98316C2845.42 2.87866 2845.6 2.7632 2845.79 2.64743V2.64588C2846.24 2.36532 2846.69 2.08325 2847.19 1.95157C2847.65 1.82176 2848.16 1.852 2848.66 1.88226C2848.88 1.89542 2849.1 1.90858 2849.32 1.90858H2937.28C2937.47 1.90858 2937.66 1.89766 2937.85 1.88677C2938.27 1.86239 2938.68 1.8382 2939.06 1.93724C2939.65 2.10155 2940.22 2.35419 2940.78 2.60547C2941 2.70468 2941.22 2.80394 2941.45 2.89719C2941.28 3.10967 2941.14 3.34496 2940.99 3.58103V3.58231V3.58354V3.58579L2940.98 3.58995C2940.66 4.09912 2940.34 4.61056 2939.87 4.90306C2938.35 5.85261 2936.79 6.75593 2935.24 7.65944C2932.92 9.00537 2930.59 10.3517 2928.39 11.852C2915.35 20.7781 2907.76 33.5583 2901.82 47.4132C2893.74 66.2464 2888.41 85.9015 2883.07 105.554V105.558C2882.68 106.985 2882.3 108.412 2881.91 109.839C2874.32 137.684 2866.76 165.539 2859.2 193.395L2859.03 194.021L2858.88 194.572C2854.05 212.363 2849.22 230.154 2844.39 247.943C2839.49 265.952 2833.39 284.018 2827.28 302.088V302.094V302.097V302.099V302.101V302.103V302.106V302.108V302.11V302.113V302.115L2827.27 302.117V302.119C2821.05 320.539 2814.83 338.962 2809.88 357.334C2809.22 359.784 2808.34 360.802 2805.62 360.687C2804.07 360.628 2802.85 360.636 2801.88 360.641C2800.04 360.652 2799.08 360.658 2798.46 360.203C2797.78 359.708 2797.5 358.668 2796.91 356.497V356.494C2796.65 355.53 2796.33 354.341 2795.89 352.879C2787.15 323.995 2779.64 295.05 2772.12 266.105C2764.63 237.245 2757.13 208.385 2748.43 179.586C2746.01 171.586 2743.58 163.596 2741.15 155.599L2739.51 150.2C2739.35 149.669 2739.16 149.143 2738.9 148.444L2738.89 148.44L2738.77 148.111C2738.69 147.887 2738.6 147.646 2738.5 147.383C2738.44 147.231 2738.39 147.072 2738.33 146.904C2737.28 150.153 2736.25 153.322 2735.24 156.44L2735.23 156.478L2735 157.183L2734.94 157.38C2733.08 163.129 2731.27 168.711 2729.49 174.299L2729.48 174.313C2709.97 235.344 2690.46 296.375 2671.01 357.42C2670.28 359.713 2669.17 360.458 2666.74 360.444L2666.42 360.443C2658.3 360.43 2658.2 360.43 2655.84 352.75C2647.47 325.515 2639.1 298.281 2630.74 271.048L2630.64 270.742L2630.55 270.451L2630.47 270.176C2618.32 230.634 2606.18 191.095 2594 151.561C2584.83 121.774 2575.66 91.9865 2566.11 62.3139C2562.06 49.7199 2557.19 37.3695 2549.83 26.0936C2544.05 17.2392 2536.25 10.4908 2526.91 5.28991C2526.29 4.94467 2525.83 4.34138 2525.37 3.73718V3.73368V3.7321L2525.33 3.68201L2525.3 3.64462L2525.19 3.50031C2525.12 3.63233 2525.06 3.76144 2524.99 3.88682C2524.56 4.73982 2524.21 5.42106 2523.67 5.67376C2501.14 16.1043 2489.98 35.7618 2481.68 57.5112C2475.92 72.6455 2470.27 87.8264 2464.62 103.008L2464.59 103.073V103.091C2455.54 127.391 2446.5 151.69 2436.98 175.8C2430.83 191.389 2427.95 206.877 2428.51 223.554C2428.96 237.095 2428.88 250.652 2428.79 264.212C2428.74 273.12 2428.69 282.03 2428.78 290.937C2428.87 299.233 2429.51 307.557 2430.56 315.796C2432.72 332.831 2443.09 344.909 2455.63 355.54C2456.55 356.31 2457.34 357.223 2458.13 358.138V358.146L2458.15 358.164C2458.29 358.327 2458.43 358.491 2458.57 358.653C2458.78 358.893 2458.99 359.132 2459.21 359.366L2458.44 360.297H2316.64C2317.03 359.794 2317.35 359.327 2317.63 358.908C2318.17 358.111 2318.59 357.493 2319.16 357.145C2338.92 345.196 2347.17 326.713 2347.66 304.72C2348.22 279.4 2348.28 254.073 2348.35 228.748V228.71C2348.37 219.11 2348.39 209.511 2348.44 199.914C2348.44 198.767 2348.13 197.564 2347.69 196.489L2343.47 186.174L2343.36 185.895L2343.34 185.854L2343.33 185.82L2343.31 185.789L2343.3 185.761L2343.29 185.735L2343.28 185.712L2343.27 185.692C2323.99 138.5 2304.7 91.3112 2285.27 44.1721C2283.75 40.4731 2281.91 36.8892 2279.95 33.3731C2277.1 33.1909 2274.16 33.0998 2271.14 33.0998H2239.96V298.204C2239.96 311.858 2243.38 324.137 2250.19 335.055C2257.01 345.973 2266.21 354.168 2277.8 359.627V360.644H2121.34V359.627C2133.27 354.168 2142.64 345.973 2149.46 335.055C2156.29 324.137 2159.69 311.858 2159.69 298.204V33.0998H2127.99C2123.74 33.0998 2116.78 33.2853 2110.2 33.6563L2111.21 120.969L2110.27 120.883C2076.57 54.46 2035.02 32.4957 1996.36 29.0284C1975.11 27.1229 1956.45 35.7338 1940.37 54.8755C1924.27 74.0029 1914.47 103.317 1910.94 142.79C1906.76 189.627 1913.72 227.108 1931.83 255.205C1949.94 283.301 1974.2 298.718 2004.64 301.44C2021.13 302.916 2037.2 300.136 2052.83 293.115C2068.48 286.081 2085.95 272.985 2105.25 253.8L2106.21 253.886C2094.65 290.293 2076.71 318.533 2052.38 338.606C2028.06 358.679 1999.56 367.261 1966.9 364.338C1950.09 362.834 1933.33 357.447 1916.58 348.191L1916.55 348.162C1899.8 338.907 1884.29 326.47 1870.03 310.853C1855.77 295.236 1844.71 275.034 1836.85 250.204C1829 225.389 1826.37 198.424 1828.97 169.325C1831.57 140.211 1838.84 114.221 1850.8 91.3537C1862.75 68.4724 1877.47 50.4912 1894.93 37.3815C1912.4 24.2717 1931.4 14.6721 1951.91 8.5829C1972.42 2.49365 1993.14 0.38749 2014.07 2.26441C2014.49 2.30204 2014.91 2.34102 2015.34 2.38135H2095.96H2100.24H2100.25H2351.93V2.43571H2382.2C2381.8 2.97077 2381.47 3.45628 2381.17 3.89226V3.89442V3.89706C2380.59 4.74297 2380.14 5.40207 2379.54 5.87435C2378.77 6.47853 2377.91 6.96362 2377.04 7.44954C2376.34 7.83927 2375.64 8.22986 2375 8.68256C2367.04 14.1414 2362.96 21.6777 2364.44 31.2772C2365.5 38.1402 2366.94 45.1607 2369.56 51.5509C2380.99 79.3558 2392.65 107.061 2404.3 134.761L2404.34 134.834C2407.96 143.45 2411.59 152.066 2415.21 160.684C2415.35 161.033 2415.56 161.362 2415.83 161.787C2415.96 161.99 2416.11 162.216 2416.27 162.475C2416.45 162.184 2416.62 161.929 2416.78 161.694L2416.79 161.692C2417.08 161.26 2417.33 160.897 2417.48 160.498C2420.51 152.516 2423.56 144.54 2426.61 136.563V136.557V136.55V136.544L2426.62 136.539V136.535V136.531V136.526C2435.31 113.789 2444 91.0506 2452.29 68.1709C2455.62 58.9869 2457.58 49.1581 2458.9 39.4583C2459.68 33.6556 2458.58 27.3945 2457.24 21.5774C2455.59 14.4279 2449.83 10.2443 2443.85 6.50476C2443.02 5.98587 2442.36 5.1726 2441.72 4.36212C2441.42 3.98668 2441.12 3.6114 2440.8 3.26672L2441.6 2.42139H2525.8C2525.78 2.46204 2525.75 2.50263 2525.73 2.54313C2526.42 2.24606 2527.11 1.95157 2527.8 1.95157C2570.35 1.90858 2612.91 1.90858 2655.46 1.92291C2655.89 1.92291 2656.34 1.96204 2657.06 2.02633L2657.07 2.02642C2657.5 2.06503 2658.04 2.11277 2658.75 2.16648C2658.29 2.74445 2657.9 3.28619 2657.54 3.78557L2657.53 3.78788C2656.83 4.76065 2656.25 5.57257 2655.48 6.17822C2644.07 15.1903 2638.08 26.4232 2640.28 40.8941C2640.95 45.307 2641.84 49.7343 2643.14 54.0182C2656.96 99.4865 2670.86 144.933 2684.75 190.377L2690.98 210.763C2691.11 211.208 2691.29 211.637 2691.56 212.263L2691.57 212.275L2691.58 212.317C2691.66 212.498 2691.74 212.695 2691.84 212.913C2691.93 213.141 2692.04 213.392 2692.15 213.671C2692.32 213.197 2692.48 212.756 2692.63 212.339L2692.96 211.426C2693.41 210.207 2693.78 209.194 2694.12 208.169C2696.28 201.536 2698.43 194.903 2700.59 188.27L2700.68 188.005C2708.98 162.449 2717.29 136.895 2725.52 111.314C2726.05 109.667 2726.21 107.632 2725.71 106.013C2724.85 103.225 2724 100.435 2723.14 97.6456V97.6311V97.619L2723.13 97.6082V97.5984V97.5895L2723.12 97.5824V97.5759V97.5707V97.566V97.5617V97.5576C2717.21 78.2761 2711.3 58.9841 2704.98 39.8339C2702.66 32.799 2699.24 25.9934 2695.57 19.4886C2691.96 13.1271 2685.9 8.84316 2679.47 5.14663C2678.94 4.83547 2678.56 4.26695 2678.19 3.70082V3.69776V3.69621C2678.01 3.4297 2677.84 3.16388 2677.64 2.92585C2677.94 2.81938 2678.24 2.68151 2678.53 2.54364C2679.15 2.25477 2679.77 1.96589 2680.39 1.96589C2713.19 1.93151 2746 1.9338 2778.8 1.93609C2787 1.93667 2795.2 1.93724 2803.4 1.93724C2803.7 1.93724 2803.99 1.97687 2804.51 2.04547C2804.81 2.08599 2805.19 2.13661 2805.69 2.19514C2805.41 2.59945 2805.17 2.9837 2804.95 3.34082C2804.49 4.07194 2804.11 4.68954 2803.57 5.1323C2802.48 6.05158 2801.28 6.86662 2800.09 7.6794L2800.08 7.68169C2799.62 7.99557 2799.16 8.30913 2798.71 8.62825C2786.39 17.2535 2782.84 29.1025 2786.48 42.728C2790.23 56.7782 2794.51 70.7056 2798.79 84.6328V84.6362C2799.78 87.8642 2800.77 91.0923 2801.76 94.3219C2809.55 119.951 2817.41 145.562 2825.27 171.169L2827.48 178.366C2828.8 182.684 2830.13 187.002 2831.45 191.32C2831.77 192.347 2832.13 193.368 2832.48 194.391L2832.49 194.42L2832.53 194.53C2832.62 194.806 2832.72 195.081 2832.81 195.357L2832.94 195.733L2833.64 195.618L2833.67 195.59ZM2458.44 360.297H2458.45L2458.42 360.311L2458.44 360.297ZM2064.83 90.9946H1975.24L1974.86 91.6537C1974.99 91.7774 1975.11 91.9045 1975.23 92.0334C1975.35 92.1622 1975.47 92.2927 1975.59 92.4231C1976.09 92.963 1976.58 93.5021 1977.14 93.9175C1985.05 99.7488 1990.9 107.5 1992.73 118.16C1993.96 125.352 1994.69 132.788 1994.72 140.11C1994.78 157.353 1994.82 164.716 1994.84 168.603C1994.85 170.713 1994.85 171.798 1994.85 172.883C1994.85 173.951 1994.85 175.02 1994.84 177.067V177.092L1994.83 177.285V177.471V177.536V177.553C1994.81 181.537 1994.77 188.97 1994.71 205.644C1994.68 213.553 1993.65 221.562 1992.27 229.328C1990.4 239.959 1984.51 247.481 1976.14 252.553C1975.57 252.894 1975.09 253.393 1974.6 253.893V253.896C1974.37 254.132 1974.14 254.368 1973.91 254.588L1974.31 255.118H2064.87L2065.25 254.473C2065 254.21 2064.76 253.933 2064.52 253.656C2064.04 253.102 2063.56 252.548 2063.01 252.109C2053.46 244.386 2047.65 234.07 2046.51 220.688C2046 214.9 2045.62 209.054 2045.62 203.237C2045.59 185.162 2045.58 181.712 2045.57 181.432C2045.57 180.293 2045.58 176.97 2045.58 168.335C2045.58 165.6 2045.56 162.865 2045.54 160.13V160.072V160.071V160.069V160.068V160.066V160.064C2045.5 153.38 2045.46 146.698 2045.66 140.024C2045.88 133.275 2046.38 126.47 2047.44 119.836C2049.21 108.675 2055.19 100.537 2063.07 94.0034C2063.62 93.5538 2064.09 92.9776 2064.56 92.402C2064.78 92.1338 2065 91.8657 2065.23 91.6107L2064.83 90.9946ZM3185.15 242.702C3185.32 242.52 3185.49 242.323 3185.66 242.126C3186.02 241.702 3186.37 241.28 3186.82 241.026C3199.4 233.919 3205.07 222.643 3206.2 208.703C3206.63 203.416 3206.96 198.114 3206.96 192.813C3206.98 179.44 3207 171.331 3207.01 165.582C3207.02 160.908 3207.02 157.794 3207.02 154.68C3207.02 148.474 3207 142.269 3206.92 123.724L3206.89 116.547C3206.86 108.524 3206.08 100.4 3204.69 92.4911C3202.87 82.1035 3196.49 74.5672 3187.58 69.1513C3187.44 69.0626 3187.28 68.9857 3187.13 68.9091C3186.83 68.7629 3186.54 68.6175 3186.33 68.392C3186.05 68.0918 3185.86 67.7148 3185.66 67.3389V67.337V67.3316V67.3273V67.3243C3185.62 67.2485 3185.58 67.1727 3185.54 67.0977C3185.49 67.017 3185.45 66.9371 3185.4 66.8589C3185.46 66.8331 3185.52 66.8068 3185.58 66.7804L3185.78 66.6889C3186.13 66.5249 3186.48 66.3634 3186.85 66.2572C3187.06 66.1981 3187.28 66.2134 3187.51 66.2288C3187.61 66.2358 3187.72 66.2428 3187.82 66.2428H3281.46H3283.64L3284.13 66.8303C3283.94 67.0341 3283.76 67.2484 3283.59 67.463L3283.58 67.4645C3283.21 67.9132 3282.84 68.3632 3282.39 68.7215C3281.33 69.5732 3280.24 70.388 3279.14 71.2027V71.2039C3277.03 72.7735 3274.92 74.3424 3273.07 76.1719C3266.27 82.8629 3263.77 91.5454 3262.81 100.729C3262.3 105.758 3261.98 110.816 3261.97 115.874L3261.95 131.964V132.167V132.173C3261.93 148.234 3261.92 156.265 3261.92 164.295C3261.92 171.474 3261.93 178.653 3261.94 191.568L3261.95 193.781V195.735V196.104L3261.97 212.7C3261.97 216.268 3262.24 219.892 3262.84 223.403C3263.74 228.604 3267.02 230.824 3272.31 230.38C3277.57 229.936 3282.15 227.615 3286.64 225.122C3296.1 219.849 3304.41 213.044 3312.55 205.966C3326.25 194.031 3338.47 180.706 3349.59 166.364C3349.99 165.848 3350.4 165.342 3350.82 164.837C3351.07 164.53 3351.33 164.223 3351.57 163.914L3352.33 163.986C3352.33 164.315 3352.35 164.648 3352.37 164.98C3352.42 165.692 3352.46 166.403 3352.3 167.066C3349.76 177.669 3347.16 188.261 3344.56 198.851L3344.55 198.904L3344.53 198.959L3343.03 205.078C3341.06 213.152 3339.09 221.23 3337.12 229.308C3335.15 237.385 3333.18 245.461 3331.2 253.534C3331.18 253.621 3331.16 253.71 3331.14 253.799C3331.12 253.887 3331.1 253.977 3331.08 254.066V254.077V254.08C3330.98 254.541 3330.88 255.005 3330.69 255.425C3330.47 255.883 3330.06 256.5 3329.69 256.528C3329.38 256.56 3329.05 256.273 3328.72 255.994L3328.63 255.921C3328.59 255.883 3328.54 255.845 3328.5 255.809C3328.46 255.775 3328.41 255.742 3328.37 255.712C3328.34 255.685 3328.32 255.636 3328.3 255.586L3328.29 255.556L3328.28 255.536L3328.27 255.523L3328.26 255.503V255.497C3324.01 246.499 3316.28 243.619 3307.03 243.461C3304.58 243.418 3302.14 243.375 3299.69 243.375H3188.45H3185.55L3185.09 242.702H3185.15ZM2927.56 207.75L2926.78 210.141C2921.54 226.175 2916.29 242.246 2911.02 258.384H2984.06C2972.42 221.743 2960.9 185.415 2949.37 149.095L2948.54 146.471C2948.41 146.465 2948.29 146.459 2948.16 146.455C2947.97 146.447 2947.78 146.442 2947.6 146.442C2941.49 165.106 2935.4 183.771 2929.28 202.48L2928.37 205.286L2927.56 207.75ZM2543.9 209.662C2552.14 203.567 2557.49 193.77 2557.49 182.723C2557.49 164.239 2542.53 149.254 2524.07 149.254C2505.61 149.254 2490.65 164.239 2490.65 182.723C2490.65 194.009 2496.23 203.99 2504.77 210.053C2525.44 225.83 2525.45 257.006 2504.82 272.807C2496.25 278.866 2490.65 288.863 2490.65 300.17C2490.65 318.655 2505.61 333.639 2524.07 333.639C2542.53 333.639 2557.49 318.655 2557.49 300.17C2557.49 289.125 2552.15 279.33 2543.91 273.234C2522.54 257.445 2522.54 225.451 2543.91 209.662H2543.9ZM1683.25 209.408C1691.49 203.313 1696.83 193.516 1696.83 182.469C1696.83 163.985 1681.87 149 1663.42 149C1644.96 149 1630 163.985 1630 182.469C1630 193.755 1635.58 203.737 1644.12 209.799C1664.78 225.577 1664.8 256.752 1644.17 272.553C1635.6 278.612 1630 288.609 1630 299.916C1630 318.401 1644.96 333.385 1663.42 333.385C1681.87 333.385 1696.83 318.401 1696.83 299.916C1696.83 288.871 1691.49 279.076 1683.26 272.98C1661.88 257.191 1661.88 225.197 1683.26 209.408H1683.25Z" fill="#E1FD05"/>
<path fill-rule="evenodd" clip-rule="evenodd" d="M3507.25 209.408C3515.49 203.313 3520.83 193.516 3520.83 182.469C3520.83 163.985 3505.87 149 3487.42 149C3468.96 149 3454 163.985 3454 182.469C3454 193.755 3459.58 203.737 3468.12 209.799C3488.78 225.577 3488.8 256.752 3468.17 272.553C3459.6 278.612 3454 288.609 3454 299.916C3454 318.401 3468.96 333.385 3487.42 333.385C3505.87 333.385 3520.83 318.401 3520.83 299.916C3520.83 288.871 3515.49 279.076 3507.26 272.98C3485.88 257.191 3485.88 225.197 3507.26 209.408H3507.25Z" fill="#E1FD05"/>
</svg>
