<svg width="105" height="93" viewBox="0 0 105 93" fill="none" xmlns="http://www.w3.org/2000/svg">
<path fill-rule="evenodd" clip-rule="evenodd" d="M11.6079 37.8865C13.3579 39.7998 15.2607 41.3233 17.3161 42.4573L17.3196 42.4608C19.375 43.5947 21.4322 44.2547 23.4947 44.439C27.502 44.797 30.9985 43.7456 33.9825 41.2865C36.9682 38.8273 39.1693 35.3677 40.5876 30.9075L40.47 30.897C38.1021 33.2473 35.9589 34.8516 34.0387 35.7135C32.1201 36.5736 30.149 36.9141 28.1251 36.7333C24.3899 36.3998 21.4129 34.5111 19.1907 31.069C16.9686 27.6269 16.1155 23.0351 16.628 17.2971C17.0616 12.4613 18.264 8.86996 20.2386 6.52666C22.2116 4.1816 24.5022 3.12668 27.1088 3.36013C31.8533 3.78491 36.9507 6.47575 41.0861 14.6132L41.202 14.6238L41.0767 3.8898C41.5827 3.87124 42.0518 3.86196 42.3851 3.86196H46.2748V36.3399C46.2748 38.0127 45.857 39.517 45.0198 40.8545C44.1825 42.192 43.0328 43.196 41.5689 43.8648V43.9894H60.7664V43.8648C59.3446 43.196 58.216 42.192 57.3787 40.8545C56.5432 39.517 56.1237 38.0127 56.1237 36.3399V3.86196H59.9502C60.3198 3.86196 60.6791 3.87304 61.0281 3.89523C61.2681 4.32554 61.4928 4.76414 61.6798 5.21682C64.0707 11.0076 66.4433 16.8045 68.8161 22.6018L69.3381 23.8772C69.3925 24.0089 69.4312 24.1563 69.4312 24.2967C69.4249 25.4699 69.422 26.6432 69.419 27.8166L69.419 27.8245V27.8246V27.8248V27.825V27.8251V27.8253V27.8254V27.8256V27.8258V27.8259C69.4112 30.9295 69.4034 34.0335 69.3346 37.1366C69.2749 39.831 68.2621 42.0953 65.8381 43.5592C65.7679 43.6018 65.7165 43.6776 65.6504 43.7752C65.6157 43.8264 65.5769 43.8837 65.5292 43.9453H82.9272L82.9258 43.9471L82.9293 43.9453H82.9272L83.0223 43.8312C82.977 43.7821 82.9332 43.7314 82.8894 43.6808C82.7926 43.5687 82.6959 43.4569 82.5835 43.3626C81.0441 42.0602 79.7715 40.5805 79.5065 38.4934C79.3783 37.4841 79.2993 36.4643 79.2888 35.448C79.277 34.3568 79.2836 33.2654 79.2903 32.1741V32.1739V32.1738V32.1736V32.1734V32.1732V32.173V32.1729V32.1727V32.1725C79.3004 30.5118 79.3106 28.8514 79.2555 27.1929C79.187 25.1498 79.5398 23.2523 80.2946 21.3426C81.4628 18.3885 82.5726 15.4112 83.6824 12.4339L83.6828 12.4327C84.3771 10.5702 85.0713 8.70774 85.7798 6.85098C86.7979 4.18647 88.167 1.77822 90.9316 0.500378C90.9981 0.469421 91.0406 0.386035 91.0939 0.281534V0.281525C91.1222 0.226049 91.1536 0.164622 91.1931 0.101929H80.8615L80.7633 0.205491C80.8021 0.247703 80.8389 0.293606 80.8757 0.339585V0.339595L80.8758 0.339619C80.9553 0.438934 81.0351 0.538599 81.1371 0.602184C81.8708 1.06031 82.5782 1.57285 82.7801 2.44874C82.9451 3.16138 83.0802 3.92844 82.9837 4.63933C82.8222 5.82766 82.5817 7.03178 82.1727 8.15691C81.1552 10.9613 80.0886 13.7483 79.0221 16.5351L79.0218 16.5361L79.0205 16.5393L79.0197 16.5415L79.0191 16.5429L79.0186 16.5443L79.0181 16.5457L79.0176 16.5471L79.017 16.5484L79.0169 16.5489L79.0167 16.5494C78.6444 17.522 78.2722 18.4946 77.9021 19.4679C77.884 19.5168 77.8533 19.5613 77.8167 19.6142L77.8167 19.6142L77.8166 19.6144C77.7967 19.6432 77.7752 19.6744 77.7529 19.7102C77.7345 19.6797 77.7175 19.6532 77.7021 19.6291L77.702 19.6289L77.7011 19.6275L77.7008 19.627L77.7 19.6259L77.6999 19.6257L77.6999 19.6256C77.6666 19.5737 77.6408 19.5334 77.6231 19.4908C77.1812 18.4402 76.7385 17.3899 76.2958 16.3395L76.2952 16.3382L76.2946 16.3369L76.2941 16.3355L76.2935 16.3342L76.2929 16.3329L76.2924 16.3315L76.2918 16.3302L76.2902 16.3263L76.2896 16.325C74.8577 12.928 73.4255 9.53055 72.022 6.12079C71.7007 5.33793 71.5235 4.47784 71.3936 3.63706C71.2128 2.46103 71.713 1.53775 72.689 0.868987C72.7686 0.813536 72.8542 0.76573 72.9396 0.717993C73.0462 0.658442 73.1526 0.598998 73.2471 0.524952C73.3201 0.467034 73.3755 0.386183 73.4466 0.282398L73.4466 0.282379L73.4468 0.282157C73.4834 0.228738 73.5242 0.169247 73.5736 0.103685H69.8627L69.8623 0.0986328H39.6145H39.6127H38.455L29.4705 0.0986328C29.4071 0.0926041 29.3443 0.086815 29.2818 0.0812654C26.7139 -0.148676 24.1722 0.10935 21.6552 0.855344C19.1381 1.60134 16.8071 2.77738 14.6639 4.38346C12.5207 5.98954 10.7145 8.19242 9.24883 10.9956C7.78141 13.797 6.88973 16.9829 6.57027 20.5478C6.25081 24.1128 6.57378 27.4163 7.53743 30.4564C8.50108 33.4983 9.85791 35.9732 11.6079 37.8865ZM34.051 9.89844H23.0577L23.0121 9.97918C23.0424 10.0095 23.0717 10.0415 23.1011 10.0734C23.1619 10.1396 23.2225 10.2056 23.2912 10.2565C24.2618 10.9709 24.9797 11.9205 25.2044 13.2264C25.3554 14.1076 25.4449 15.0186 25.4484 15.9155C25.4552 18.0278 25.46 18.9299 25.4625 19.406L25.4625 19.407L25.4626 19.4102C25.4639 19.6662 25.4646 19.7984 25.4646 19.9306C25.4646 20.0712 25.4638 20.2117 25.4622 20.5008C25.4595 20.9884 25.4543 21.8986 25.4466 23.9442C25.4431 24.9131 25.3167 25.8943 25.1482 26.8457C24.9183 28.1481 24.1951 29.0696 23.1683 29.691C23.0991 29.7327 23.0397 29.7938 22.9801 29.8552L22.9801 29.8552L22.9801 29.8552C22.9519 29.8842 22.9237 29.9132 22.8945 29.9402L22.9436 30.0052H34.0563L34.1019 29.9262C34.0715 29.894 34.042 29.8601 34.0126 29.8261C33.9537 29.7583 33.8948 29.6904 33.8281 29.6366C32.6556 28.6905 31.9429 27.4267 31.8025 25.7872C31.7411 25.0781 31.6937 24.3619 31.6937 23.6493C31.69 21.4314 31.6885 21.0109 31.6879 20.9778C31.6882 20.8381 31.6884 20.4308 31.6884 19.3734C31.6884 19.036 31.6863 18.6986 31.6842 18.3613C31.6792 17.542 31.6741 16.7231 31.6989 15.905C31.7253 15.0783 31.7867 14.2445 31.9166 13.4318C32.1343 12.0645 32.868 11.0675 33.8351 10.267C33.9022 10.212 33.9603 10.1414 34.0183 10.0708C34.0453 10.038 34.0723 10.0052 34.1002 9.97391L34.051 9.89844ZM95.3108 76.4705L95.4565 76.4898H95.46C95.46 76.5431 95.4633 76.5972 95.4667 76.6513C95.4739 76.7679 95.4811 76.8844 95.4547 76.9935C94.8638 79.4054 94.2698 81.8166 93.6758 84.228L93.6754 84.2298L93.6749 84.2316L93.6745 84.2335L93.674 84.2353L93.6736 84.2371C93.3597 85.5115 93.0457 86.7859 92.7323 88.0606C92.5999 88.5987 92.4684 89.1368 92.337 89.6749L92.3363 89.6778C92.0984 90.6516 91.8606 91.6252 91.6177 92.598C91.5935 92.6957 91.5404 92.7859 91.4873 92.8761C91.4632 92.9171 91.439 92.9582 91.4175 92.9999C91.3783 92.9658 91.3348 92.9343 91.2915 92.9029C91.199 92.836 91.1073 92.7695 91.0595 92.6787C90.4012 91.4325 89.3639 90.79 87.9614 90.7198C87.8259 90.713 87.6904 90.7056 87.5547 90.6982L87.5524 90.698C87.0615 90.6712 86.5697 90.6443 86.078 90.6443C79.2324 90.6426 72.3886 90.6426 65.543 90.6426V90.6306H56.776H56.2143C56.2021 90.6098 56.1904 90.589 56.1787 90.5682L56.1787 90.5681L56.1783 90.5675L56.159 90.5332L56.1423 90.5042C56.181 90.4726 56.2184 90.4385 56.2557 90.4044C56.3385 90.3286 56.4211 90.253 56.5179 90.2058C58.0485 89.4581 58.7384 88.2171 58.6717 86.5917C58.6383 85.786 58.5172 84.9734 58.3259 84.1887C58.1662 83.5382 57.9629 82.8983 57.7595 82.2585C57.6342 81.8642 57.5089 81.4699 57.3938 81.0731C57.3236 80.8309 57.2025 80.7695 56.962 80.7695C53.6129 80.7765 50.2621 80.7765 46.913 80.7695C46.6656 80.7677 46.5427 80.8467 46.4812 81.0819C46.3558 81.5655 46.2193 82.0468 46.0828 82.5279L46.0828 82.528L46.0828 82.5281L46.0827 82.5282L46.0827 82.5283C45.8066 83.5018 45.5306 84.4746 45.3473 85.4648C44.9524 87.5922 45.7809 89.0895 47.7328 90.1497C47.8522 90.2137 47.9622 90.2924 48.0723 90.3713L48.0724 90.3713C48.1192 90.4049 48.1661 90.4384 48.2137 90.4709C48.2032 90.492 48.1922 90.5126 48.1812 90.5332C48.1703 90.5538 48.1593 90.5744 48.1488 90.5955H37.3749C37.4086 90.5443 37.4362 90.4932 37.4619 90.4455C37.5111 90.3543 37.5538 90.2754 37.6206 90.2304C40.3027 88.44 41.8719 85.865 42.8882 82.9513C43.9127 80.0159 44.8608 77.057 45.8091 74.0975L45.8091 74.0974L45.8091 74.0973L45.8092 74.0972L46.074 73.2709C48.8825 64.5191 51.6786 55.762 54.4643 47.0031C54.6029 46.5696 54.7907 46.4274 55.2524 46.4467L55.3331 46.4499C56.1707 46.4828 56.1788 46.4831 56.4495 47.3138L68.1818 83.3953C68.4357 84.1742 68.7076 84.9451 69.0377 85.6898C69.0784 85.4913 69.1123 85.2886 69.1395 85.0819C69.2519 84.2323 69.3396 83.3722 69.3396 82.5156C69.3519 73.1319 69.3519 63.7499 69.3309 54.3662C69.3273 53.4973 69.1957 52.6232 69.0518 51.7649C68.7077 49.7305 67.5931 48.2104 65.815 47.166C65.7922 47.1528 65.766 47.14 65.7396 47.127C65.6645 47.0902 65.5866 47.052 65.571 46.9975C65.5447 46.9098 65.5886 46.7465 65.6588 46.7009C65.7178 46.6633 65.8072 46.6704 65.8964 46.6776C65.932 46.6805 65.9675 46.6833 66.0011 46.6833H82.6763C82.6901 46.6833 82.7043 46.6823 82.7185 46.6812C82.7493 46.679 82.7803 46.6767 82.8079 46.6851C82.8961 46.7137 82.9826 46.7466 83.0691 46.7796L83.1025 46.7924C83.1271 46.8017 83.1518 46.8111 83.1765 46.8203C83.1666 46.8311 83.1569 46.8421 83.1474 46.8534C83.1389 46.8633 83.1305 46.8733 83.1222 46.8834L83.0901 46.9228L83.09 46.9229C83.0323 46.9943 82.9746 47.0656 82.9027 47.1186C82.75 47.2317 82.5931 47.3396 82.4363 47.4474C82.184 47.6209 81.9317 47.7944 81.6968 47.9893C80.3558 49.1004 79.6853 50.5836 79.4623 52.2651C79.3237 53.3148 79.2412 54.3802 79.2394 55.4404C79.2219 65.3299 79.2271 75.2194 79.2324 85.1088V85.1187C79.2324 85.6558 79.2587 86.1947 79.3131 86.7301C79.4588 88.1448 80.2961 88.6293 81.6757 88.1957C82.7324 87.8622 83.768 87.3479 84.6931 86.7353C88.0053 84.5447 90.8383 81.8135 93.3993 78.7944C93.8431 78.2715 94.2754 77.7403 94.708 77.2088C94.9085 76.9625 95.109 76.7161 95.3108 76.4705ZM37.9071 70.4063C38.0636 69.8384 38.2204 69.2708 38.3772 68.7031L38.378 68.7001C38.6919 67.5633 39.0059 66.4264 39.3183 65.2879L39.9083 63.1376L39.9085 63.1371L39.9087 63.1365L39.9088 63.1359L39.909 63.1354L39.9091 63.1348C40.7485 60.0768 41.5879 57.0183 42.4181 53.9576C42.6849 52.9729 42.7885 51.9741 42.7042 50.9508C42.5831 49.4535 41.8231 48.3618 40.5224 47.5877C40.3408 47.4793 40.153 47.3812 39.9652 47.2831L39.9651 47.283L39.9651 47.283L39.9651 47.283L39.965 47.283L39.965 47.2829C39.8061 47.2 39.6473 47.117 39.4921 47.0277C39.4416 46.9989 39.4076 46.9421 39.3737 46.8854C39.3581 46.8594 39.3425 46.8333 39.3253 46.8101C39.3337 46.8054 39.342 46.8006 39.3503 46.7957C39.3648 46.7871 39.3792 46.7781 39.3936 46.7691L39.3939 46.769L39.3942 46.7688C39.4494 46.7344 39.505 46.6998 39.5658 46.6837C39.6221 46.6678 39.6843 46.6715 39.7466 46.6752C39.7736 46.6768 39.8007 46.6784 39.8273 46.6784H50.6205C50.6433 46.6784 50.6664 46.6771 50.6894 46.6758H50.6895C50.741 46.6728 50.7921 46.6698 50.8382 46.6819C50.9112 46.7021 50.9806 46.733 51.0495 46.7638C51.0768 46.776 51.104 46.7881 51.1313 46.7996C51.1111 46.8259 51.0928 46.8551 51.0743 46.8844L51.0743 46.8844C51.035 46.9468 50.9956 47.0095 50.9383 47.0453C50.7515 47.1616 50.5605 47.2722 50.3695 47.3828L50.3693 47.3829L50.3693 47.383L50.3692 47.383L50.3692 47.383L50.3692 47.383L50.3691 47.383C50.0845 47.5479 49.7997 47.7128 49.5288 47.8966C47.9297 48.9901 46.9977 50.5559 46.2692 52.2532C45.2775 54.5606 44.623 56.9686 43.9686 59.3764L43.8259 59.901C42.8946 63.3115 41.9673 66.7233 41.0399 70.1352L41.0396 70.1363C40.434 72.3643 39.8284 74.5923 39.2218 76.8201C38.6212 79.0267 37.8722 81.2403 37.123 83.4543L37.123 83.4544L37.123 83.4545L37.1229 83.4546L37.1229 83.4547L37.1229 83.4548C36.359 85.7122 35.595 87.9701 34.988 90.2217C34.9073 90.5218 34.7985 90.6465 34.4649 90.6324C34.2752 90.6252 34.1255 90.6261 34.0061 90.6268C33.7801 90.6282 33.6624 90.6289 33.5859 90.573C33.5028 90.5123 33.4684 90.3848 33.3966 90.1187C33.3648 90.0005 33.3255 89.855 33.2713 89.6758C32.1991 86.1373 31.2769 82.5913 30.3547 79.0454L30.3546 79.0452C29.4351 75.5096 28.5156 71.9739 27.4473 68.4457C27.1525 67.4716 26.8566 66.4986 26.5604 65.525L26.3538 64.8456C26.3343 64.7805 26.31 64.716 26.2778 64.6303C26.2579 64.5773 26.2349 64.5163 26.2081 64.4419C26.0673 64.8779 25.9297 65.3023 25.7944 65.7196L25.7932 65.7232L25.7927 65.7249C25.5642 66.4294 25.3424 67.1133 25.1233 67.798C22.7291 75.2755 20.3349 82.753 17.9477 90.2322C17.8582 90.5131 17.7231 90.6043 17.4247 90.6026L17.3856 90.6025C16.3888 90.601 16.3765 90.601 16.0872 89.66C15.0603 86.3265 14.0348 82.993 13.0094 79.6597L13.0086 79.6572L13.0059 79.6481L13.0037 79.6412L13.0035 79.6404L13.0032 79.6396L13.003 79.6389L13.0028 79.6381C11.5029 74.7625 10.0032 69.8871 8.49907 65.0124L8.49904 65.0123C7.37392 61.3631 6.24879 57.7139 5.07627 54.0787C4.57953 52.5358 3.98273 51.0228 3.07876 49.6414C2.36963 48.5566 1.413 47.7299 0.266806 47.0927C0.190665 47.0504 0.134494 46.9765 0.0782421 46.9024L0.0782377 46.9024L0.0782274 46.9024L0.0782218 46.9024H0.0782189C0.0527813 46.8689 0.0273264 46.8354 0 46.8048C0.0392977 46.7915 0.0787701 46.7746 0.118307 46.7576L0.118342 46.7576L0.118376 46.7576L0.118411 46.7576L0.118445 46.7575L0.118479 46.7575C0.204269 46.7207 0.290362 46.6837 0.375633 46.6837C5.59759 46.6784 10.8196 46.6784 16.0398 46.6802C16.0935 46.6802 16.148 46.685 16.2375 46.6929C16.2911 46.6976 16.3573 46.7035 16.4435 46.71C16.3869 46.781 16.3389 46.8474 16.2948 46.9087L16.2948 46.9087C16.2089 47.0279 16.1372 47.1273 16.0433 47.2015C14.6426 48.3056 13.9071 49.6817 14.1774 51.4546C14.2599 51.9952 14.3687 52.5376 14.5285 53.0624C16.2225 58.6248 17.9245 64.1846 19.6264 69.744L20.3981 72.2652C20.4145 72.3197 20.4369 72.3722 20.4697 72.4487L20.4698 72.4489L20.4698 72.449L20.47 72.4493C20.4899 72.4959 20.5136 72.5513 20.5421 72.6215C20.5789 72.5191 20.6119 72.429 20.6422 72.3465C20.6969 72.1971 20.7424 72.073 20.7843 71.9475C21.0447 71.147 21.3053 70.3466 21.5659 69.5462L21.5719 69.5277L21.5779 69.5092L21.5784 69.5077L21.5789 69.5063L21.5793 69.5048L21.5798 69.5033L21.5803 69.5019C22.6022 66.3628 23.6241 63.224 24.6371 60.0818C24.7021 59.8799 24.7214 59.6307 24.6599 59.4323C24.5558 59.0934 24.4517 58.7544 24.3477 58.4153L24.3451 58.4072C23.6191 56.0414 22.8926 53.6743 22.1165 51.3247C21.8322 50.4628 21.4127 49.6291 20.9616 48.8322C20.5192 48.0528 19.775 47.528 18.9869 47.0751C18.9214 47.037 18.8752 46.9673 18.8293 46.898C18.8076 46.8651 18.7859 46.8324 18.7622 46.8031C18.7985 46.79 18.8348 46.7731 18.8711 46.7562C18.9471 46.7209 19.0232 46.6855 19.0992 46.6855C23.1242 46.6812 27.1503 46.6815 31.1757 46.6818L34.1929 46.6819C34.2293 46.6819 34.2657 46.6868 34.3287 46.6952L34.3291 46.6953L34.3304 46.6954C34.3673 46.7004 34.4134 46.7065 34.4737 46.7135C34.4392 46.7631 34.4099 46.8102 34.3827 46.8539C34.327 46.9435 34.28 47.0191 34.2139 47.0734C34.0797 47.1861 33.9328 47.2859 33.7862 47.3856L33.7861 47.3856L33.786 47.3857L33.7859 47.3857C33.7294 47.4242 33.6728 47.4626 33.6171 47.5017C32.1058 48.5583 31.6705 50.01 32.1164 51.6792C32.5765 53.4002 33.1014 55.1061 33.6264 56.812L33.6264 56.8123C33.7482 57.2081 33.87 57.604 33.991 58C34.9473 61.1384 35.9112 64.2746 36.875 67.4103L37.635 69.8833C37.674 70.0089 37.7173 70.1336 37.7606 70.2587L37.7607 70.2589L37.761 70.2596L37.7798 70.3139C37.7924 70.3505 37.8051 70.3872 37.8175 70.4239L37.9035 70.4098L37.9071 70.4063ZM83.6419 74.8785C83.6215 74.9026 83.601 74.9268 83.5793 74.9491H83.5723L83.6284 75.0316H83.9848H97.6339C97.934 75.0316 98.2342 75.0369 98.5343 75.0421C99.67 75.0614 100.618 75.4143 101.139 76.5166C101.141 76.5199 101.143 76.5237 101.144 76.5275C101.146 76.5336 101.149 76.5396 101.153 76.5429C101.159 76.5474 101.166 76.5524 101.172 76.5575C101.18 76.5639 101.188 76.5706 101.196 76.5774L101.196 76.5774C101.236 76.6117 101.277 76.6468 101.315 76.6429C101.36 76.6394 101.411 76.564 101.438 76.5078C101.461 76.4562 101.474 76.3993 101.486 76.3428L101.486 76.3426L101.486 76.3424L101.486 76.3422L101.486 76.3421L101.486 76.3419C101.491 76.3198 101.495 76.2977 101.501 76.2761C101.742 75.2892 101.984 74.3018 102.225 73.3144C102.467 72.3227 102.71 71.331 102.952 70.3397L103.135 69.596C103.455 68.2922 103.776 66.9882 104.09 65.683C104.109 65.6016 104.104 65.5146 104.098 65.4274L104.098 65.4271C104.096 65.3864 104.093 65.3457 104.093 65.3056L104 65.2968C103.97 65.3346 103.939 65.3722 103.908 65.4099L103.907 65.4103C103.856 65.472 103.805 65.5338 103.756 65.597C102.392 67.354 100.893 68.9864 99.2119 70.4486C98.2131 71.3157 97.1933 72.1494 96.033 72.7954C95.4819 73.1008 94.9202 73.3851 94.2742 73.4396C93.6248 73.494 93.2228 73.2219 93.1122 72.5847C93.0385 72.1547 93.0052 71.7106 93.0052 71.2735L93.0031 69.2789C93.001 67.3112 92.9999 66.3273 92.9999 65.3435C92.9999 64.3811 93.0009 63.4188 93.0029 61.5355L93.003 61.4708L93.0031 61.4081L93.0031 61.3916L93.0052 59.4114C93.0069 58.7917 93.0455 58.1721 93.1087 57.556C93.2263 56.4309 93.5335 55.3672 94.3673 54.5475C94.5948 54.3234 94.8536 54.1312 95.1124 53.939L95.1125 53.9389L95.1125 53.9389L95.1126 53.9388L95.1127 53.9387C95.2471 53.8389 95.3816 53.7391 95.5117 53.6347C95.5663 53.5908 95.6121 53.5356 95.6578 53.4806L95.6584 53.4798C95.6674 53.4689 95.6764 53.4581 95.6855 53.4473L95.6929 53.4386C95.7032 53.4265 95.7135 53.4146 95.7241 53.403L95.6644 53.3311H95.3976H83.9075C83.8949 53.3311 83.882 53.3302 83.8693 53.3293C83.8413 53.3275 83.8135 53.3256 83.7882 53.3328C83.7427 53.3458 83.7001 53.3656 83.6568 53.3856L83.6566 53.3857C83.6415 53.3927 83.6263 53.3997 83.6109 53.4065C83.622 53.4255 83.6322 53.4453 83.6425 53.4651C83.6665 53.5112 83.6906 53.5575 83.725 53.5944C83.7503 53.622 83.7862 53.6398 83.8223 53.6577C83.8412 53.6671 83.8602 53.6765 83.8777 53.6874C84.9712 54.3509 85.7541 55.2742 85.977 56.5467C86.1473 57.5157 86.2438 58.5109 86.2473 59.4939L86.251 60.369V60.3698C86.2604 62.6443 86.2636 63.4049 86.2636 64.1655C86.2636 64.5472 86.2628 64.9289 86.2616 65.5019V65.5042V65.5071V65.5106C86.2601 66.2144 86.258 67.2063 86.2561 68.8372C86.2561 69.4867 86.2157 70.1361 86.1631 70.7838C86.0244 72.4917 85.3276 73.8731 83.7847 74.7437C83.7295 74.7749 83.6858 74.8265 83.6419 74.8785ZM47.3993 78.0997C48.0773 76.0283 48.7522 73.9659 49.4254 71.9083L49.4434 71.8536C50.2595 69.3596 51.0732 66.8726 51.8875 64.3857C51.9261 64.3857 51.9647 64.3874 52.0034 64.3892C53.4515 68.9459 54.8996 73.5026 56.3617 78.0997H47.3993ZM92.6837 21.6228C92.6837 22.8247 92.0921 23.8882 91.1847 24.5373C88.9561 26.229 88.9604 29.591 91.1976 31.2762C92.0977 31.9261 92.6837 32.9852 92.6837 34.1814C92.6837 36.158 91.0838 37.7603 89.1104 37.7603C87.1369 37.7603 85.5371 36.158 85.5371 34.1814C85.5371 32.987 86.1214 31.9292 87.0192 31.2791C89.2611 29.5941 89.2658 26.2272 87.0332 24.5352C86.1274 23.886 85.5371 22.8235 85.5371 21.6228C85.5371 19.6463 87.1369 18.0439 89.1104 18.0439C91.0838 18.0439 92.6837 19.6463 92.6837 21.6228Z" fill="#979E38"/>
</svg>
