<svg width="3522" height="378" viewBox="0 0 3522 378" fill="none" xmlns="http://www.w3.org/2000/svg">
<g clip-path="url(#clip0_910_305)">
<path fill-rule="evenodd" clip-rule="evenodd" d="M630.452 358.7H630.432L630.422 358.71L630.452 358.7Z" fill="black"/>
<path fill-rule="evenodd" clip-rule="evenodd" d="M1022.59 237.11L1019.96 246.79L1019.89 246.8C1015 264.81 1008.9 282.88 1002.79 300.95L1002.64 301.385C996.472 319.67 990.301 337.955 985.39 356.19C984.74 358.64 983.85 359.65 981.13 359.54C979.767 359.487 978.659 359.489 977.752 359.49L977.39 359.49L977.334 359.49C975.53 359.5 974.583 359.505 973.97 359.05C973.305 358.561 973.032 357.557 972.469 355.486L972.43 355.34C972.17 354.37 971.85 353.18 971.41 351.72C962.757 323.13 955.311 294.472 947.866 265.822L947.64 264.95C940.15 236.09 932.66 207.23 923.95 178.43C921.54 170.47 919.13 162.51 916.71 154.55L915.04 149.04C914.891 148.549 914.709 148.059 914.476 147.433L914.42 147.28C914.287 146.938 914.149 146.559 913.99 146.125L913.85 145.74C912.7 149.31 911.58 152.78 910.47 156.2L909.372 159.597C907.895 164.17 906.446 168.655 905.01 173.14C885.5 234.17 865.99 295.21 846.53 356.26C845.8 358.55 844.7 359.3 842.27 359.28H841.95C833.83 359.27 833.73 359.27 831.37 351.59C822.99 324.35 814.62 297.11 806.26 269.88L806.22 269.74C794 229.96 781.78 190.18 769.53 150.4C760.55 121.24 751.57 92.0801 742.23 63.0201C741.78 61.8351 741.332 60.6476 740.885 59.4601C740.437 58.2726 739.99 57.0851 739.54 55.9001C731.24 34.1601 719.12 13.6201 696.59 3.19006C674.06 13.6201 661.94 34.1501 653.64 55.9001C652.389 59.1742 651.156 62.4543 649.922 65.7358C649.558 66.7038 649.194 67.6719 648.83 68.6401C644.72 79.5701 640.62 90.5101 636.55 101.46C627.51 125.77 618.46 150.08 608.94 174.19C602.79 189.78 599.91 205.26 600.47 221.94C600.911 235.234 600.833 248.537 600.754 261.85L600.75 262.59L600.741 264.174C600.693 272.565 600.646 280.948 600.74 289.33C600.82 297.63 601.47 305.95 602.51 314.19C604.67 331.22 615.04 343.3 627.58 353.93C629.395 355.444 630.588 356.249 631.343 356.758C632.065 357.245 632.386 357.462 632.47 357.77C632.67 358.54 631.93 358.66 630.39 358.69H490.38H489.11H488.59C488.6 358.68 488.61 358.66 488.61 358.66C487.98 358.61 487.71 358.43 487.71 357.91C487.71 357.04 488.66 356.56 492.44 354.7C511.23 342.73 519.12 324.6 519.6 303.11C520.16 277.78 520.23 252.44 520.29 227.11C520.31 217.51 520.34 207.91 520.39 198.31C520.39 197.17 520.07 195.97 519.63 194.89L515.39 184.5L515.37 184.44L515.34 184.36C515.34 184.35 515.3 184.26 515.3 184.26L513.417 179.654C494.735 133.94 476.057 88.2365 457.23 42.5701C455.7 38.8701 453.87 35.2901 451.91 31.7701C449.06 31.5901 446.12 31.5001 443.1 31.5001H411.92V296.61C411.92 310.26 415.34 322.54 422.15 333.46C428.64 343.84 437.08 351.66 447.86 357.1C447.88 357.11 447.88 357.11 447.9 357.11C447.92 357.12 447.94 357.13 447.959 357.138C447.994 357.155 448.027 357.17 448.06 357.19C448.256 357.286 448.452 357.384 448.649 357.482C448.944 357.629 449.24 357.776 449.54 357.92C450.06 358.17 450.39 358.36 450.39 358.56C450.39 358.88 450.25 359.01 449.6 359.03V359.05H294.39H294.15C293.27 359.05 292.84 359.02 292.84 358.58C292.84 358.234 292.969 358.175 293.838 357.772L293.95 357.72C305.58 352.26 314.74 344.17 321.44 333.45C328.26 322.53 331.67 310.25 331.67 296.6V31.5101H299.97C295.72 31.5101 288.76 31.7001 282.18 32.0701L283.2 119.38L282.26 119.29C248.56 52.8701 207.02 30.9101 168.35 27.4401C147.11 25.5401 128.44 34.1501 112.36 53.2901C96.2596 72.4101 86.4596 101.73 82.9296 141.2C78.7596 188.03 85.7096 225.51 103.82 253.61C121.93 281.7 146.19 297.12 176.63 299.84C193.12 301.31 209.19 298.53 224.82 291.51C240.47 284.48 257.94 271.38 277.24 252.2L278.2 252.29C266.64 288.7 248.7 316.94 224.37 337.01C200.05 357.08 171.56 365.66 138.9 362.74C122.09 361.23 105.32 355.85 88.5696 346.59L88.5396 346.56C71.7896 337.3 56.2796 324.87 42.0196 309.25C27.7596 293.63 16.6996 273.43 8.84956 248.6C0.999561 223.78 -1.63044 196.82 0.969561 167.72C3.56956 138.61 10.8396 112.62 22.7796 89.7101C34.7196 66.8301 49.4396 48.8501 66.9096 35.7401C84.3796 22.6301 103.38 13.0301 123.89 6.94006C144.41 0.850058 165.12 -1.25994 186.05 0.620058C186.469 0.659997 186.898 0.699936 187.328 0.739875L187.33 0.740058H267.95H523.92V0.790058H553.76C553.91 0.780058 554.05 0.780058 554.18 0.780058C554.18 0.780058 555.63 0.670058 555.18 1.78006C555.02 2.19006 554.8 2.30006 554.42 2.48006C553.727 2.79588 553.085 3.202 552.444 3.60741C552.131 3.80533 551.818 4.00307 551.5 4.19006C549.97 5.09006 548.44 6.02006 546.98 7.04006C539.02 12.4901 534.95 20.0301 536.42 29.6301C537.48 36.4901 538.92 43.5101 541.54 49.9001C552.977 77.7336 564.644 105.457 576.312 133.181L576.32 133.2C577.299 135.528 578.277 137.852 579.254 140.173C581.907 146.475 584.551 152.755 587.19 159.04C587.34 159.39 587.55 159.72 587.82 160.14C587.875 160.229 587.931 160.32 587.991 160.415C588.072 160.544 588.157 160.68 588.25 160.83C588.43 160.54 588.61 160.28 588.77 160.05C589.07 159.62 589.32 159.26 589.47 158.86C591.676 153.03 593.898 147.21 596.121 141.39C596.941 139.244 597.761 137.097 598.58 134.95C607.02 112.87 615.44 90.8001 623.51 68.6101C623.635 68.2651 623.762 67.9176 623.89 67.5701C624.017 67.2226 624.145 66.8751 624.27 66.5301C627.6 57.3501 629.56 47.5201 630.88 37.8201C631.67 32.0201 630.56 25.7601 629.22 19.9401C627.57 12.7901 621.81 8.61006 615.83 4.87006C615.21 4.48596 614.624 4.14382 614.094 3.83492C612.557 2.93749 611.5 2.32057 611.5 1.77006C611.5 1.07006 612.14 0.820058 613.59 0.790058H779.65C796.77 0.760058 813.89 0.740058 831.01 0.740058C831.268 0.740058 831.889 0.748873 832.306 0.754798C832.517 0.757799 832.676 0.760058 832.71 0.760058C834.54 0.760058 835.3 1.09006 835.3 1.92006C835.3 2.44795 834.741 2.76954 833.648 3.39937C833.022 3.75983 832.221 4.22124 831.25 4.88006L831.21 4.90536C831.117 4.96449 831.039 5.01497 830.96 5.05006C819.59 14.0501 813.62 25.2701 815.82 39.7101C816.49 44.1201 817.38 48.5501 818.68 52.8301C831.316 94.3929 844.011 135.939 856.704 177.476L860.21 188.95C861.26 192.39 862.31 195.828 863.36 199.265C864.41 202.703 865.46 206.14 866.51 209.58C866.64 210.03 866.82 210.45 867.09 211.08L867.174 211.277C867.322 211.626 867.487 212.012 867.68 212.49C867.98 211.66 868.25 210.92 868.5 210.25C868.95 209.03 869.32 208.02 869.66 206.99C870.705 203.775 871.75 200.563 872.795 197.35C873.84 194.138 874.885 190.925 875.93 187.71L876.03 187.42L876.15 187.06C884.48 161.43 892.81 135.8 901.07 110.14C901.6 108.49 901.76 106.46 901.26 104.84C900.924 103.743 900.586 102.644 900.249 101.544C899.762 99.9573 899.274 98.3687 898.79 96.7801L898.7 96.4701L898.58 96.0793C892.7 76.8994 886.817 57.7107 880.54 38.6601C878.23 31.6201 874.81 24.8101 871.13 18.3101C867.71 12.2701 862.06 8.10006 856 4.53006C855.99 4.52006 855.97 4.50006 855.96 4.50006C855.749 4.37373 855.539 4.25233 855.324 4.12894C855.234 4.07651 855.142 4.02373 855.05 3.97006C855.024 3.95726 855.003 3.94036 854.982 3.9246C854.971 3.91575 854.96 3.90726 854.95 3.90006C854.709 3.75932 854.486 3.63105 854.28 3.51281C853.025 2.79096 852.42 2.4428 852.42 1.91006C852.42 1.18006 853.13 0.930058 854.75 0.930058C868.09 0.91379 881.632 0.882634 895.211 0.851392C915.02 0.805817 934.91 0.760058 954.37 0.760058H978.97H979.09L979.116 0.758279C979.256 0.748906 979.388 0.740058 979.53 0.740058C981.37 0.740058 982.13 1.02006 982.13 1.85006C982.13 2.37795 981.571 2.69954 980.478 3.32937C979.852 3.68983 979.051 4.15124 978.08 4.81006C978.028 4.84243 977.976 4.87061 977.927 4.89732C977.9 4.91186 977.874 4.92596 977.85 4.94006C977.13 5.47006 976.39 5.98006 975.65 6.49006L975.423 6.64442C975.031 6.91046 974.647 7.17175 974.27 7.44006C961.95 16.0701 958.41 27.9101 962.04 41.5401C965.79 55.5901 970.06 69.5101 974.34 83.4301C974.731 84.7104 975.124 85.9893 975.516 87.2671C976.117 89.2229 976.717 91.1765 977.31 93.1301C984.157 115.635 991.059 138.132 997.96 160.628L1000.78 169.82C1000.8 169.87 1000.81 169.9 1000.81 169.9C1000.82 169.92 1000.91 170.22 1000.91 170.22L1002.09 174.068C1003.74 179.422 1005.38 184.773 1007.02 190.13C1007.27 190.963 1007.55 191.783 1007.84 192.605C1007.91 192.8 1007.97 192.995 1008.04 193.19C1008.2 193.66 1008.35 194.1 1008.5 194.55L1009.2 194.44L1009.23 194.41L1013.07 180.49C1015.63 171.213 1018.18 161.926 1020.73 152.639L1020.73 152.63C1021.49 149.835 1022.26 147.043 1023.02 144.25C1023.79 141.458 1024.55 138.665 1025.32 135.87L1025.54 135.06L1025.56 135C1032.4 110.06 1039.23 85.1101 1046 60.1501C1048.17 52.1201 1049.01 43.9601 1048.33 35.6101C1047.34 23.3901 1041.15 14.4801 1030.55 8.16006C1029.14 7.30538 1027.66 6.5337 1026.19 5.76531L1026.01 5.67006C1025.44 5.38006 1025 5.14006 1024.58 4.91006C1024.04 4.61006 1023.52 4.32006 1022.81 3.91006C1022.75 3.88006 1022.69 3.84006 1022.62 3.79006C1022.5 3.72238 1022.37 3.65637 1022.25 3.59194C1020.95 2.88522 1019.99 2.36744 1019.99 1.90006C1019.99 1.22006 1020.62 0.970058 1022.05 0.950058H1022.06C1022.52 0.820058 1112.85 0.760058 1112.85 0.760058C1113 0.760058 1114.66 0.786516 1115.28 0.796396L1115.51 0.800058C1117.01 0.840058 1117.65 1.30006 1117.65 2.06006C1117.65 2.56645 1116.65 3.11522 1115.27 3.87029C1115.15 3.93531 1115.03 4.00187 1114.91 4.07006C1114.05 4.60006 1113.18 5.12006 1112.31 5.63006C1112.3 5.64006 1112.29 5.65006 1112.28 5.65006C1112.17 5.72982 1112.07 5.77976 1111.99 5.8197L1111.99 5.82006C1111.59 6.04732 1111.21 6.27458 1110.82 6.50184L1110.81 6.51006C1108.49 7.85006 1106.16 9.20006 1103.96 10.7001C1090.92 19.6201 1083.33 32.4101 1077.39 46.2601C1069.34 65.0106 1064.02 84.5842 1058.71 104.151L1058.64 104.4C1058.44 105.115 1058.25 105.828 1058.06 106.54C1057.87 107.253 1057.67 107.965 1057.48 108.68C1049.91 136.44 1042.37 164.21 1034.84 191.98L1034.77 192.23C1030.71 207.193 1026.65 222.149 1022.59 237.11ZM1473.58 243.51C1473.29 243.51 1473.03 243.63 1472.85 243.83C1471.21 245.83 1469.58 247.83 1467.96 249.83L1467.32 250.62L1467.3 250.644C1463.99 254.712 1460.68 258.777 1457.29 262.78C1436.42 287.42 1413.33 309.72 1386.33 327.6C1378.79 332.6 1370.35 336.8 1361.74 339.52C1350.5 343.06 1343.67 339.1 1342.49 327.56C1342.04 323.19 1341.83 318.79 1341.83 314.41L1341.82 302.995C1341.78 226.05 1341.75 149.105 1341.89 72.1602C1341.9 63.5102 1342.57 54.8102 1343.7 46.2402C1345.52 32.5102 1350.98 20.4102 1361.91 11.3402C1363.83 9.75018 1365.88 8.33018 1367.94 6.92018C1368.15 6.77267 1368.36 6.62576 1368.57 6.47902L1368.59 6.46823L1368.61 6.45373L1368.64 6.43279L1368.65 6.4284L1368.65 6.42812C1369.27 5.99503 1369.89 5.56287 1370.51 5.12018C1370.63 5.08018 1370.75 5.02018 1370.9 4.92018C1371.87 4.2617 1372.67 3.80042 1373.3 3.44005L1373.3 3.43957C1374.39 2.80968 1374.95 2.48809 1374.95 1.96018C1374.95 1.18018 1374.27 0.890177 1372.69 0.850177H1372.67C1372.44 0.780177 1233.97 0.850177 1233.97 0.850177H1230.67C1229.1 0.850177 1228.41 1.11018 1228.41 1.83018C1228.41 2.33874 1229.25 2.8024 1230.57 3.5348L1230.57 3.53505L1230.58 3.53751C1231.12 3.84138 1231.76 4.19149 1232.45 4.61018C1232.45 4.61018 1232.47 4.62018 1232.48 4.63018C1246.97 13.1502 1256.05 25.5602 1258.86 42.1702C1260.03 49.1802 1261.1 56.3102 1261.13 63.4002C1261.3 140 1261.3 216.58 1261.2 293.17C1261.2 300.16 1260.49 307.18 1259.57 314.12C1259.35 315.81 1259.07 317.48 1258.74 319.1C1256.04 313.01 1253.82 306.71 1251.75 300.35L1156.14 7.85018C1153.93 1.07299 1153.86 1.07018 1147.05 0.800513L1147.04 0.800177L1146.38 0.770177C1142.62 0.610177 1141.09 1.77018 1139.96 5.31018C1126.85 46.5726 1113.72 87.1521 1100.56 127.827L1100.56 127.828L1100.55 127.836L1100.53 127.912L1100.52 127.935L1100.52 127.945C1090.89 157.703 1081.24 187.513 1071.58 217.68C1071.04 219.353 1070.5 221.033 1069.97 222.708L1069.56 223.99L1069.51 224.13L1069.47 224.28L1069.42 224.43H1069.41C1061.69 248.59 1053.96 272.74 1045.61 296.7C1037.51 319.97 1025.07 340.58 1004.06 355.14C1003.14 355.666 1002.38 356.076 1001.75 356.41C1000.07 357.317 999.398 357.675 999.398 358.31C999.398 358.93 999.778 359.06 1000.69 359.09V359.1H1087.57C1088.73 359.1 1089.2 359.01 1089.2 358.32C1089.2 357.693 1088.52 357.33 1086.85 356.431C1086.58 356.29 1086.3 356.136 1085.98 355.966C1085.75 355.837 1085.5 355.699 1085.23 355.55C1085.19 355.53 1085.15 355.5 1085.1 355.47C1069.19 346.82 1062.44 334.59 1065.65 317.23C1067.15 309.15 1069.4 301.2 1071.65 293.26L1071.94 292.215L1071.95 292.195L1071.95 292.191L1071.95 292.188C1072.96 288.615 1073.97 285.042 1074.9 281.46C1075.4 279.54 1076.4 278.89 1078.42 278.91C1105.71 278.97 1133.02 278.97 1160.31 278.91C1162.27 278.91 1163.26 279.41 1163.83 281.39C1164.77 284.63 1165.79 287.85 1166.81 291.06C1168.47 296.28 1170.13 301.51 1171.43 306.82C1172.99 313.22 1173.97 319.86 1174.25 326.43C1174.79 339.7 1169.17 349.83 1156.69 355.93L1156.67 355.94C1154.32 357.164 1152.83 357.942 1152.83 358.62C1152.83 359.414 1153.43 359.41 1154.96 359.402C1155.13 359.401 1155.31 359.4 1155.5 359.4H1155.5C1155.67 359.4 1155.83 359.4 1156 359.39H1230.27V359.49C1286.06 359.49 1341.84 359.49 1397.63 359.5C1401.64 359.5 1405.65 359.72 1409.65 359.94L1409.65 359.94C1410.24 359.97 1410.83 360 1411.42 360.04C1411.55 360.048 1411.68 360.055 1411.82 360.061C1411.94 360.068 1412.07 360.074 1412.2 360.08C1412.36 360.088 1412.52 360.096 1412.68 360.104C1412.78 360.109 1412.88 360.114 1412.98 360.12C1424.41 360.69 1432.86 365.94 1438.23 376.11L1438.29 376.2C1438.63 377.06 1439.47 377.67 1440.45 377.67C1441.69 377.67 1442.69 376.7 1442.77 375.48C1442.77 375.473 1442.77 375.467 1442.77 375.46C1442.77 375.458 1442.77 375.457 1442.77 375.455C1442.78 375.453 1442.78 375.452 1442.78 375.45C1444.76 367.5 1446.7 359.55 1448.64 351.6V351.54L1448.67 351.48V351.42C1449.56 347.832 1450.43 344.238 1451.31 340.648L1451.86 338.42L1453.08 333.446C1455.23 324.697 1457.38 315.952 1459.53 307.2L1460.59 302.869C1465.09 284.604 1469.58 266.346 1474.05 248.08C1474.26 247.19 1474.65 245.26 1474.6 244.3C1474.6 244.24 1474.58 244.2 1474.57 244.17C1474.48 243.71 1473.99 243.51 1473.6 243.51H1473.58ZM1082.38 257.1C1087.51 241.39 1092.62 225.75 1097.72 210.15L1098.83 206.76L1098.93 206.46C1105.61 185.99 1112.28 165.58 1118.96 145.16C1119.17 145.16 1119.38 145.169 1119.59 145.178C1119.69 145.183 1119.8 145.187 1119.9 145.19C1131.7 182.39 1143.5 219.58 1155.42 257.1H1082.38ZM715.679 208.45C724.219 202.39 729.799 192.41 729.799 181.12C729.799 162.64 714.839 147.65 696.379 147.65H696.219H696.059C677.599 147.65 662.639 162.63 662.639 181.12C662.639 192.41 668.219 202.39 676.759 208.45C697.419 224.23 697.439 255.4 676.799 271.21C668.229 277.27 662.629 287.26 662.629 298.57C662.629 317.05 677.589 332.04 696.049 332.04H696.209H696.369C714.829 332.04 729.789 317.06 729.789 298.57C729.789 287.26 724.189 277.27 715.619 271.21C694.989 255.41 694.999 224.23 715.659 208.45H715.679ZM166.823 177.625L166.832 175.94H166.842C166.862 173.58 166.862 172.44 166.862 171.29C166.862 170.613 166.858 169.936 166.852 169.01L166.852 169.001C166.849 168.452 166.845 167.815 166.842 167.04V167C166.812 163.11 166.782 155.74 166.722 138.51C166.692 131.19 165.962 123.75 164.732 116.56C162.902 105.96 157.102 98.2299 149.252 92.4099C148.71 92.0778 148.244 91.8107 147.852 91.586C146.769 90.9648 146.252 90.6679 146.252 90.2199C146.252 89.6099 146.842 89.3999 148.202 89.3999H148.322H235.682C237.302 89.3999 237.972 89.6399 237.972 90.3799C237.972 90.851 237.477 91.1356 236.509 91.6931C235.956 92.0113 235.249 92.4184 234.392 92.9999C234.362 93.0199 234.332 93.0299 234.302 93.0499C226.802 99.4799 221.142 107.44 219.422 118.24C218.372 124.88 217.872 131.68 217.652 138.43C217.452 145.108 217.492 151.786 217.532 158.474L217.532 158.48C217.535 159.394 217.539 160.309 217.544 161.225V161.229C217.553 163.067 217.562 164.906 217.562 166.74V179.84C217.572 180.11 217.582 183.56 217.612 201.64C217.612 207.46 218.002 213.3 218.502 219.09C219.632 232.34 225.342 242.58 234.732 250.28C235.37 250.674 235.963 251 236.474 251.282C237.57 251.886 238.292 252.284 238.292 252.7C238.292 253.23 237.862 253.45 236.872 253.51V253.53H146.982L146.942 253.51C146.142 253.47 145.762 253.32 145.762 252.8C145.762 252.329 146.256 252.044 147.224 251.487C147.777 251.169 148.484 250.761 149.342 250.18C149.39 250.143 149.435 250.114 149.479 250.089C149.497 250.079 149.515 250.069 149.532 250.06C149.552 250.05 149.572 250.04 149.592 250.03C157.182 244.98 162.512 237.73 164.272 227.73C165.642 219.97 166.672 211.96 166.702 204.05C166.763 189.465 166.801 181.951 166.823 177.625ZM1523.54 162.33C1523.3 162.33 1523.09 162.45 1522.95 162.63H1522.94C1522.87 162.725 1522.79 162.818 1522.71 162.911C1522.64 163.004 1522.56 163.096 1522.49 163.188L1522.48 163.201C1522.38 163.316 1522.28 163.433 1522.19 163.55C1521.77 164.06 1521.36 164.56 1520.96 165.08C1509.84 179.42 1497.62 192.75 1483.92 204.68C1475.78 211.76 1467.47 218.56 1458.01 223.84C1453.52 226.33 1448.94 228.65 1443.68 229.1C1438.39 229.54 1435.11 227.32 1434.21 222.12C1433.61 218.61 1433.34 214.98 1433.34 211.42L1433.32 195.14C1433.3 179.08 1433.29 171.05 1433.29 163.02C1433.29 154.99 1433.3 147.65 1433.32 132.93V130.63L1433.34 114.6C1433.35 109.54 1433.67 104.48 1434.18 99.4502C1435.14 90.2702 1437.64 81.5802 1444.44 74.8902C1446.29 73.0606 1448.4 71.4908 1450.51 69.9211L1450.51 69.9202C1450.82 69.6861 1451.13 69.4486 1451.44 69.2116L1451.45 69.2072C1451.66 69.0407 1451.88 68.8746 1452.1 68.7102C1452.15 68.6865 1452.21 68.6592 1452.27 68.6263C1452.31 68.6038 1452.35 68.5787 1452.39 68.5502C1453.25 67.9688 1453.95 67.5616 1454.51 67.2434C1455.47 66.6859 1455.97 66.4013 1455.97 65.9302C1455.97 65.1902 1455.3 64.9502 1453.68 64.9502H1359.2C1359.12 64.9578 1359.04 64.9538 1358.96 64.9515C1358.94 64.9508 1358.91 64.9502 1358.89 64.9502H1358.88H1358.8C1357.18 64.9502 1356.47 65.2002 1356.47 65.9302C1356.47 66.4202 1356.98 66.7502 1358.02 67.3502C1358.11 67.4102 1358.21 67.4702 1358.31 67.5202C1358.64 67.7136 1359.03 67.9424 1359.47 68.2006L1359.72 68.3502C1368.23 73.7302 1374.3 81.1202 1376.06 91.2002C1377.45 99.1102 1378.23 107.23 1378.26 115.26L1378.29 122.44V122.74C1378.37 141.06 1378.39 147.23 1378.39 153.4C1378.39 156.53 1378.39 159.65 1378.38 164.36C1378.38 165.697 1378.37 167.16 1378.37 168.787L1378.37 170.899L1378.37 171.015C1378.35 176.103 1378.34 182.659 1378.33 191.53C1378.33 196.83 1378 202.13 1377.57 207.42C1376.47 220.99 1371.05 232.02 1359.17 239.15C1359 239.239 1358.85 239.324 1358.7 239.404L1358.66 239.423C1356.93 240.347 1356.24 240.719 1356.24 241.35C1356.24 241.81 1356.45 242 1356.91 242.08L1356.99 242.09C1357.33 242.137 1357.78 242.135 1358.37 242.132C1358.53 242.131 1358.71 242.13 1358.89 242.13C1359.02 242.13 1359.14 242.127 1359.26 242.121C1359.43 242.113 1359.6 242.102 1359.76 242.09H1471.04C1473.49 242.09 1475.93 242.13 1478.38 242.18C1487.63 242.34 1495.36 245.22 1499.61 254.22C1499.62 254.25 1499.64 254.28 1499.65 254.31C1499.67 254.35 1499.68 254.38 1499.71 254.41C1499.9 254.9 1500.36 255.26 1500.92 255.26H1500.99H1501.05C1501.07 255.26 1501.09 255.24 1501.11 255.24C1501.67 255.12 1502.11 254.5 1502.2 253.9C1502.27 253.663 1502.33 253.315 1502.39 253.026C1502.4 252.948 1502.42 252.876 1502.43 252.81L1502.55 252.27C1504.53 244.2 1506.5 236.12 1508.47 228.04C1510.44 219.96 1512.41 211.88 1514.38 203.81L1515.88 197.69L1516.16 196.526L1516.17 196.484C1518.69 186.257 1521.19 176.038 1523.65 165.8C1523.69 165.642 1523.73 165.46 1523.79 165.264L1523.79 165.262C1523.88 164.924 1523.98 164.546 1524.05 164.18C1524.2 163.62 1524.29 163.12 1524.29 162.96C1524.29 162.53 1523.85 162.35 1523.52 162.35L1523.54 162.33Z" fill="#E1FD05"/>
</g>
<path fill-rule="evenodd" clip-rule="evenodd" d="M1690.68 209.45C1699.22 203.39 1704.8 193.41 1704.8 182.12C1704.8 163.64 1689.84 148.65 1671.38 148.65C1671.33 148.65 1671.27 148.65 1671.22 148.65C1671.17 148.65 1671.11 148.65 1671.06 148.65C1652.6 148.65 1637.64 163.63 1637.64 182.12C1637.64 193.41 1643.22 203.39 1651.76 209.45C1672.42 225.23 1672.44 256.4 1651.8 272.21C1643.23 278.27 1637.63 288.26 1637.63 299.57C1637.63 318.05 1652.59 333.04 1671.05 333.04C1671.1 333.04 1671.16 333.04 1671.21 333.04C1671.26 333.04 1671.32 333.04 1671.37 333.04C1689.83 333.04 1704.79 318.06 1704.79 299.57C1704.79 288.26 1699.19 278.27 1690.62 272.21C1669.99 256.41 1670 225.23 1690.66 209.45H1690.68Z" fill="#E1FD05"/>
<g clip-path="url(#clip1_910_305)">
<path fill-rule="evenodd" clip-rule="evenodd" d="M2447.45 358.7H2447.43L2447.42 358.71L2447.45 358.7Z" fill="black"/>
<path fill-rule="evenodd" clip-rule="evenodd" d="M2839.59 237.11L2836.96 246.79L2836.89 246.8C2832 264.81 2825.9 282.88 2819.79 300.95L2819.64 301.385C2813.47 319.67 2807.3 337.955 2802.39 356.19C2801.74 358.64 2800.85 359.65 2798.13 359.54C2796.77 359.487 2795.66 359.489 2794.75 359.49L2794.39 359.49L2794.33 359.49C2792.53 359.5 2791.58 359.505 2790.97 359.05C2790.31 358.561 2790.03 357.557 2789.47 355.486L2789.43 355.34C2789.17 354.37 2788.85 353.18 2788.41 351.72C2779.76 323.13 2772.31 294.472 2764.87 265.822L2764.64 264.95C2757.15 236.09 2749.66 207.23 2740.95 178.43C2738.54 170.47 2736.13 162.51 2733.71 154.55L2732.04 149.04C2731.89 148.549 2731.71 148.059 2731.48 147.433L2731.42 147.28C2731.29 146.938 2731.15 146.559 2730.99 146.125L2730.85 145.74C2729.7 149.31 2728.58 152.78 2727.47 156.2L2726.37 159.597C2724.89 164.17 2723.45 168.655 2722.01 173.14C2702.5 234.17 2682.99 295.21 2663.53 356.26C2662.8 358.55 2661.7 359.3 2659.27 359.28H2658.95C2650.83 359.27 2650.73 359.27 2648.37 351.59C2639.99 324.35 2631.62 297.11 2623.26 269.88L2623.22 269.74C2611 229.96 2598.78 190.18 2586.53 150.4C2577.55 121.24 2568.57 92.0801 2559.23 63.0201C2558.78 61.8351 2558.33 60.6476 2557.88 59.4601C2557.44 58.2726 2556.99 57.0851 2556.54 55.9001C2548.24 34.1601 2536.12 13.6201 2513.59 3.19006C2491.06 13.6201 2478.94 34.1501 2470.64 55.9001C2469.39 59.1742 2468.16 62.4543 2466.92 65.7358C2466.56 66.7038 2466.19 67.6719 2465.83 68.6401C2461.72 79.5701 2457.62 90.5101 2453.55 101.46C2444.51 125.77 2435.46 150.08 2425.94 174.19C2419.79 189.78 2416.91 205.26 2417.47 221.94C2417.91 235.234 2417.83 248.537 2417.75 261.85L2417.75 262.59L2417.74 264.174C2417.69 272.565 2417.65 280.948 2417.74 289.33C2417.82 297.63 2418.47 305.95 2419.51 314.19C2421.67 331.22 2432.04 343.3 2444.58 353.93C2446.4 355.444 2447.59 356.249 2448.34 356.758C2449.06 357.245 2449.39 357.462 2449.47 357.77C2449.67 358.54 2448.93 358.66 2447.39 358.69H2307.38H2306.11H2305.59C2305.6 358.68 2305.61 358.66 2305.61 358.66C2304.98 358.61 2304.71 358.43 2304.71 357.91C2304.71 357.04 2305.66 356.56 2309.44 354.7C2328.23 342.73 2336.12 324.6 2336.6 303.11C2337.16 277.78 2337.23 252.44 2337.29 227.11C2337.31 217.51 2337.34 207.91 2337.39 198.31C2337.39 197.17 2337.07 195.97 2336.63 194.89L2332.39 184.5L2332.37 184.44L2332.34 184.36C2332.34 184.35 2332.3 184.26 2332.3 184.26L2330.42 179.654C2311.74 133.94 2293.06 88.2365 2274.23 42.5701C2272.7 38.8701 2270.87 35.2901 2268.91 31.7701C2266.06 31.5901 2263.12 31.5001 2260.1 31.5001H2228.92V296.61C2228.92 310.26 2232.34 322.54 2239.15 333.46C2245.64 343.84 2254.08 351.66 2264.86 357.1C2264.88 357.11 2264.88 357.11 2264.9 357.11C2264.92 357.12 2264.94 357.13 2264.96 357.138C2264.99 357.155 2265.03 357.17 2265.06 357.19C2265.26 357.286 2265.45 357.384 2265.65 357.482C2265.94 357.629 2266.24 357.776 2266.54 357.92C2267.06 358.17 2267.39 358.36 2267.39 358.56C2267.39 358.88 2267.25 359.01 2266.6 359.03V359.05H2111.39H2111.15C2110.27 359.05 2109.84 359.02 2109.84 358.58C2109.84 358.234 2109.97 358.175 2110.84 357.772L2110.95 357.72C2122.58 352.26 2131.74 344.17 2138.44 333.45C2145.26 322.53 2148.67 310.25 2148.67 296.6V31.5101H2116.97C2112.72 31.5101 2105.76 31.7001 2099.18 32.0701L2100.2 119.38L2099.26 119.29C2065.56 52.8701 2024.02 30.9101 1985.35 27.4401C1964.11 25.5401 1945.44 34.1501 1929.36 53.2901C1913.26 72.4101 1903.46 101.73 1899.93 141.2C1895.76 188.03 1902.71 225.51 1920.82 253.61C1938.93 281.7 1963.19 297.12 1993.63 299.84C2010.12 301.31 2026.19 298.53 2041.82 291.51C2057.47 284.48 2074.94 271.38 2094.24 252.2L2095.2 252.29C2083.64 288.7 2065.7 316.94 2041.37 337.01C2017.05 357.08 1988.56 365.66 1955.9 362.74C1939.09 361.23 1922.32 355.85 1905.57 346.59L1905.54 346.56C1888.79 337.3 1873.28 324.87 1859.02 309.25C1844.76 293.63 1833.7 273.43 1825.85 248.6C1818 223.78 1815.37 196.82 1817.97 167.72C1820.57 138.61 1827.84 112.62 1839.78 89.7101C1851.72 66.8301 1866.44 48.8501 1883.91 35.7401C1901.38 22.6301 1920.38 13.0301 1940.89 6.94006C1961.41 0.850058 1982.12 -1.25994 2003.05 0.620058C2003.47 0.659997 2003.9 0.699936 2004.33 0.739875L2004.33 0.740058H2084.95H2340.92V0.790058H2370.76C2370.91 0.780058 2371.05 0.780058 2371.18 0.780058C2371.18 0.780058 2372.63 0.670058 2372.18 1.78006C2372.02 2.19006 2371.8 2.30006 2371.42 2.48006C2370.73 2.79588 2370.08 3.202 2369.44 3.60741C2369.13 3.80533 2368.82 4.00307 2368.5 4.19006C2366.97 5.09006 2365.44 6.02006 2363.98 7.04006C2356.02 12.4901 2351.95 20.0301 2353.42 29.6301C2354.48 36.4901 2355.92 43.5101 2358.54 49.9001C2369.98 77.7336 2381.64 105.457 2393.31 133.181L2393.32 133.2C2394.3 135.528 2395.28 137.852 2396.25 140.173C2398.91 146.475 2401.55 152.755 2404.19 159.04C2404.34 159.39 2404.55 159.72 2404.82 160.14C2404.87 160.229 2404.93 160.32 2404.99 160.415C2405.07 160.544 2405.16 160.68 2405.25 160.83C2405.43 160.54 2405.61 160.28 2405.77 160.05C2406.07 159.62 2406.32 159.26 2406.47 158.86C2408.68 153.03 2410.9 147.21 2413.12 141.39C2413.94 139.244 2414.76 137.097 2415.58 134.95C2424.02 112.87 2432.44 90.8001 2440.51 68.6101C2440.63 68.2651 2440.76 67.9176 2440.89 67.5701C2441.02 67.2226 2441.14 66.8751 2441.27 66.5301C2444.6 57.3501 2446.56 47.5201 2447.88 37.8201C2448.67 32.0201 2447.56 25.7601 2446.22 19.9401C2444.57 12.7901 2438.81 8.61006 2432.83 4.87006C2432.21 4.48596 2431.62 4.14382 2431.09 3.83492C2429.56 2.93749 2428.5 2.32057 2428.5 1.77006C2428.5 1.07006 2429.14 0.820058 2430.59 0.790058H2596.65C2613.77 0.760058 2630.89 0.740058 2648.01 0.740058C2648.27 0.740058 2648.89 0.748873 2649.31 0.754798C2649.52 0.757799 2649.68 0.760058 2649.71 0.760058C2651.54 0.760058 2652.3 1.09006 2652.3 1.92006C2652.3 2.44795 2651.74 2.76954 2650.65 3.39937C2650.02 3.75983 2649.22 4.22124 2648.25 4.88006L2648.21 4.90536C2648.12 4.96449 2648.04 5.01497 2647.96 5.05006C2636.59 14.0501 2630.62 25.2701 2632.82 39.7101C2633.49 44.1201 2634.38 48.5501 2635.68 52.8301C2648.32 94.3929 2661.01 135.939 2673.7 177.476L2677.21 188.95C2678.26 192.39 2679.31 195.828 2680.36 199.265C2681.41 202.703 2682.46 206.14 2683.51 209.58C2683.64 210.03 2683.82 210.45 2684.09 211.08L2684.17 211.277C2684.32 211.626 2684.49 212.012 2684.68 212.49C2684.98 211.66 2685.25 210.92 2685.5 210.25C2685.95 209.03 2686.32 208.02 2686.66 206.99C2687.7 203.775 2688.75 200.563 2689.79 197.35C2690.84 194.138 2691.88 190.925 2692.93 187.71L2693.03 187.42L2693.15 187.06C2701.48 161.43 2709.81 135.8 2718.07 110.14C2718.6 108.49 2718.76 106.46 2718.26 104.84C2717.92 103.743 2717.59 102.644 2717.25 101.544C2716.76 99.9573 2716.27 98.3687 2715.79 96.7801L2715.7 96.4701L2715.58 96.0793C2709.7 76.8994 2703.82 57.7107 2697.54 38.6601C2695.23 31.6201 2691.81 24.8101 2688.13 18.3101C2684.71 12.2701 2679.06 8.10006 2673 4.53006C2672.99 4.52006 2672.97 4.50006 2672.96 4.50006C2672.75 4.37373 2672.54 4.25233 2672.32 4.12894C2672.23 4.07651 2672.14 4.02373 2672.05 3.97006C2672.02 3.95726 2672 3.94036 2671.98 3.9246C2671.97 3.91575 2671.96 3.90726 2671.95 3.90006C2671.71 3.75932 2671.49 3.63105 2671.28 3.51281C2670.02 2.79096 2669.42 2.4428 2669.42 1.91006C2669.42 1.18006 2670.13 0.930058 2671.75 0.930058C2685.09 0.91379 2698.63 0.882634 2712.21 0.851392C2732.02 0.805817 2751.91 0.760058 2771.37 0.760058H2795.97H2796.09L2796.12 0.758279C2796.26 0.748906 2796.39 0.740058 2796.53 0.740058C2798.37 0.740058 2799.13 1.02006 2799.13 1.85006C2799.13 2.37795 2798.57 2.69954 2797.48 3.32937C2796.85 3.68983 2796.05 4.15124 2795.08 4.81006C2795.03 4.84243 2794.98 4.87061 2794.93 4.89732C2794.9 4.91186 2794.87 4.92596 2794.85 4.94006C2794.13 5.47006 2793.39 5.98006 2792.65 6.49006L2792.42 6.64442C2792.03 6.91046 2791.65 7.17175 2791.27 7.44006C2778.95 16.0701 2775.41 27.9101 2779.04 41.5401C2782.79 55.5901 2787.06 69.5101 2791.34 83.4301C2791.73 84.7104 2792.12 85.9893 2792.52 87.2671C2793.12 89.2229 2793.72 91.1765 2794.31 93.1301C2801.16 115.635 2808.06 138.132 2814.96 160.628L2817.78 169.82C2817.8 169.87 2817.81 169.9 2817.81 169.9C2817.82 169.92 2817.91 170.22 2817.91 170.22L2819.09 174.068C2820.74 179.422 2822.38 184.773 2824.02 190.13C2824.27 190.963 2824.55 191.783 2824.84 192.605C2824.91 192.8 2824.97 192.995 2825.04 193.19C2825.2 193.66 2825.35 194.1 2825.5 194.55L2826.2 194.44L2826.23 194.41L2830.07 180.49C2832.63 171.213 2835.18 161.926 2837.73 152.639L2837.73 152.63C2838.49 149.835 2839.26 147.043 2840.02 144.25C2840.79 141.458 2841.55 138.665 2842.32 135.87L2842.54 135.06L2842.56 135C2849.4 110.06 2856.23 85.1101 2863 60.1501C2865.17 52.1201 2866.01 43.9601 2865.33 35.6101C2864.34 23.3901 2858.15 14.4801 2847.55 8.16006C2846.14 7.30538 2844.66 6.5337 2843.19 5.76531L2843.01 5.67006C2842.44 5.38006 2842 5.14006 2841.58 4.91006C2841.04 4.61006 2840.52 4.32006 2839.81 3.91006C2839.75 3.88006 2839.69 3.84006 2839.62 3.79006C2839.5 3.72238 2839.37 3.65637 2839.25 3.59194C2837.95 2.88522 2836.99 2.36744 2836.99 1.90006C2836.99 1.22006 2837.62 0.970058 2839.05 0.950058H2839.06C2839.52 0.820058 2929.85 0.760058 2929.85 0.760058C2930 0.760058 2931.66 0.786516 2932.28 0.796396L2932.51 0.800058C2934.01 0.840058 2934.65 1.30006 2934.65 2.06006C2934.65 2.56645 2933.65 3.11522 2932.27 3.87029C2932.15 3.93531 2932.03 4.00187 2931.91 4.07006C2931.05 4.60006 2930.18 5.12006 2929.31 5.63006C2929.3 5.64006 2929.29 5.65006 2929.28 5.65006C2929.17 5.72982 2929.07 5.77976 2928.99 5.8197L2928.99 5.82006C2928.59 6.04732 2928.21 6.27458 2927.82 6.50184L2927.81 6.51006C2925.49 7.85006 2923.16 9.20006 2920.96 10.7001C2907.92 19.6201 2900.33 32.4101 2894.39 46.2601C2886.34 65.0106 2881.02 84.5842 2875.71 104.151L2875.64 104.4C2875.44 105.115 2875.25 105.828 2875.06 106.54C2874.87 107.253 2874.67 107.965 2874.48 108.68C2866.91 136.44 2859.37 164.21 2851.84 191.98L2851.77 192.23C2847.71 207.193 2843.65 222.149 2839.59 237.11ZM3290.58 243.51C3290.29 243.51 3290.03 243.63 3289.85 243.83C3288.21 245.83 3286.58 247.83 3284.96 249.83L3284.32 250.62L3284.3 250.644C3280.99 254.712 3277.68 258.777 3274.29 262.78C3253.42 287.42 3230.33 309.72 3203.33 327.6C3195.79 332.6 3187.35 336.8 3178.74 339.52C3167.5 343.06 3160.67 339.1 3159.49 327.56C3159.04 323.19 3158.83 318.79 3158.83 314.41L3158.82 302.995C3158.78 226.05 3158.75 149.105 3158.89 72.1602C3158.9 63.5102 3159.57 54.8102 3160.7 46.2402C3162.52 32.5102 3167.98 20.4102 3178.91 11.3402C3180.83 9.75018 3182.88 8.33018 3184.94 6.92018C3185.15 6.77267 3185.36 6.62576 3185.57 6.47902L3185.59 6.46823L3185.61 6.45373L3185.64 6.43279L3185.65 6.4284L3185.65 6.42812C3186.27 5.99503 3186.89 5.56287 3187.51 5.12018C3187.63 5.08018 3187.75 5.02018 3187.9 4.92018C3188.87 4.2617 3189.67 3.80042 3190.3 3.44005L3190.3 3.43957C3191.39 2.80968 3191.95 2.48809 3191.95 1.96018C3191.95 1.18018 3191.27 0.890177 3189.69 0.850177H3189.67C3189.44 0.780177 3050.97 0.850177 3050.97 0.850177H3047.67C3046.1 0.850177 3045.41 1.11018 3045.41 1.83018C3045.41 2.33874 3046.25 2.8024 3047.57 3.5348L3047.57 3.53505L3047.58 3.53751C3048.12 3.84138 3048.76 4.19149 3049.45 4.61018C3049.45 4.61018 3049.47 4.62018 3049.48 4.63018C3063.97 13.1502 3073.05 25.5602 3075.86 42.1702C3077.03 49.1802 3078.1 56.3102 3078.13 63.4002C3078.3 140 3078.3 216.58 3078.2 293.17C3078.2 300.16 3077.49 307.18 3076.57 314.12C3076.35 315.81 3076.07 317.48 3075.74 319.1C3073.04 313.01 3070.82 306.71 3068.75 300.35L2973.14 7.85018C2970.93 1.07299 2970.86 1.07018 2964.05 0.800513L2964.04 0.800177L2963.38 0.770177C2959.62 0.610177 2958.09 1.77018 2956.96 5.31018C2943.85 46.5726 2930.72 87.1521 2917.56 127.827L2917.56 127.828L2917.55 127.836L2917.53 127.912L2917.52 127.935L2917.52 127.945C2907.89 157.703 2898.24 187.513 2888.58 217.68C2888.04 219.353 2887.5 221.033 2886.97 222.708L2886.56 223.99L2886.51 224.13L2886.47 224.28L2886.42 224.43H2886.41C2878.69 248.59 2870.96 272.74 2862.61 296.7C2854.51 319.97 2842.07 340.58 2821.06 355.14C2820.14 355.666 2819.38 356.076 2818.75 356.41C2817.07 357.317 2816.4 357.675 2816.4 358.31C2816.4 358.93 2816.78 359.06 2817.69 359.09V359.1H2904.57C2905.73 359.1 2906.2 359.01 2906.2 358.32C2906.2 357.693 2905.52 357.33 2903.85 356.431C2903.58 356.29 2903.3 356.136 2902.98 355.966C2902.75 355.837 2902.5 355.699 2902.23 355.55C2902.19 355.53 2902.15 355.5 2902.1 355.47C2886.19 346.82 2879.44 334.59 2882.65 317.23C2884.15 309.15 2886.4 301.2 2888.65 293.26L2888.94 292.215L2888.95 292.195L2888.95 292.191L2888.95 292.188C2889.96 288.615 2890.97 285.042 2891.9 281.46C2892.4 279.54 2893.4 278.89 2895.42 278.91C2922.71 278.97 2950.02 278.97 2977.31 278.91C2979.27 278.91 2980.26 279.41 2980.83 281.39C2981.77 284.63 2982.79 287.85 2983.81 291.06C2985.47 296.28 2987.13 301.51 2988.43 306.82C2989.99 313.22 2990.97 319.86 2991.25 326.43C2991.79 339.7 2986.17 349.83 2973.69 355.93L2973.67 355.94C2971.32 357.164 2969.83 357.942 2969.83 358.62C2969.83 359.414 2970.43 359.41 2971.96 359.402C2972.13 359.401 2972.31 359.4 2972.5 359.4H2972.5C2972.67 359.4 2972.83 359.4 2973 359.39H3047.27V359.49C3103.06 359.49 3158.84 359.49 3214.63 359.5C3218.64 359.5 3222.65 359.72 3226.65 359.94L3226.65 359.94C3227.24 359.97 3227.83 360 3228.42 360.04C3228.55 360.048 3228.68 360.055 3228.82 360.061C3228.94 360.068 3229.07 360.074 3229.2 360.08C3229.36 360.088 3229.52 360.096 3229.68 360.104C3229.78 360.109 3229.88 360.114 3229.98 360.12C3241.41 360.69 3249.86 365.94 3255.23 376.11L3255.29 376.2C3255.63 377.06 3256.47 377.67 3257.45 377.67C3258.69 377.67 3259.69 376.7 3259.77 375.48C3259.77 375.473 3259.77 375.467 3259.77 375.46C3259.77 375.458 3259.77 375.457 3259.77 375.455C3259.78 375.453 3259.78 375.452 3259.78 375.45C3261.76 367.5 3263.7 359.55 3265.64 351.6V351.54L3265.67 351.48V351.42C3266.56 347.832 3267.43 344.238 3268.31 340.648L3268.86 338.42L3270.08 333.446C3272.23 324.697 3274.38 315.952 3276.53 307.2L3277.59 302.869C3282.09 284.604 3286.58 266.346 3291.05 248.08C3291.26 247.19 3291.65 245.26 3291.6 244.3C3291.6 244.24 3291.58 244.2 3291.57 244.17C3291.48 243.71 3290.99 243.51 3290.6 243.51H3290.58ZM2899.38 257.1C2904.51 241.39 2909.62 225.75 2914.72 210.15L2915.83 206.76L2915.93 206.46C2922.61 185.99 2929.28 165.58 2935.96 145.16C2936.17 145.16 2936.38 145.169 2936.59 145.178C2936.69 145.183 2936.8 145.187 2936.9 145.19C2948.7 182.39 2960.5 219.58 2972.42 257.1H2899.38ZM2532.68 208.45C2541.22 202.39 2546.8 192.41 2546.8 181.12C2546.8 162.64 2531.84 147.65 2513.38 147.65H2513.22H2513.06C2494.6 147.65 2479.64 162.63 2479.64 181.12C2479.64 192.41 2485.22 202.39 2493.76 208.45C2514.42 224.23 2514.44 255.4 2493.8 271.21C2485.23 277.27 2479.63 287.26 2479.63 298.57C2479.63 317.05 2494.59 332.04 2513.05 332.04H2513.21H2513.37C2531.83 332.04 2546.79 317.06 2546.79 298.57C2546.79 287.26 2541.19 277.27 2532.62 271.21C2511.99 255.41 2512 224.23 2532.66 208.45H2532.68ZM1983.82 177.625L1983.83 175.94H1983.84C1983.86 173.58 1983.86 172.44 1983.86 171.29C1983.86 170.613 1983.86 169.936 1983.85 169.01L1983.85 169.001C1983.85 168.452 1983.85 167.815 1983.84 167.04V167C1983.81 163.11 1983.78 155.74 1983.72 138.51C1983.69 131.19 1982.96 123.75 1981.73 116.56C1979.9 105.96 1974.1 98.2299 1966.25 92.4099C1965.71 92.0778 1965.24 91.8107 1964.85 91.586C1963.77 90.9648 1963.25 90.6679 1963.25 90.2199C1963.25 89.6099 1963.84 89.3999 1965.2 89.3999H1965.32H2052.68C2054.3 89.3999 2054.97 89.6399 2054.97 90.3799C2054.97 90.851 2054.48 91.1356 2053.51 91.6931C2052.96 92.0113 2052.25 92.4184 2051.39 92.9999C2051.36 93.0199 2051.33 93.0299 2051.3 93.0499C2043.8 99.4799 2038.14 107.44 2036.42 118.24C2035.37 124.88 2034.87 131.68 2034.65 138.43C2034.45 145.108 2034.49 151.786 2034.53 158.474L2034.53 158.48C2034.54 159.394 2034.54 160.309 2034.54 161.225V161.229C2034.55 163.067 2034.56 164.906 2034.56 166.74V179.84C2034.57 180.11 2034.58 183.56 2034.61 201.64C2034.61 207.46 2035 213.3 2035.5 219.09C2036.63 232.34 2042.34 242.58 2051.73 250.28C2052.37 250.674 2052.96 251 2053.47 251.282C2054.57 251.886 2055.29 252.284 2055.29 252.7C2055.29 253.23 2054.86 253.45 2053.87 253.51V253.53H1963.98L1963.94 253.51C1963.14 253.47 1962.76 253.32 1962.76 252.8C1962.76 252.329 1963.26 252.044 1964.22 251.487C1964.78 251.169 1965.48 250.761 1966.34 250.18C1966.39 250.143 1966.43 250.114 1966.48 250.089C1966.5 250.079 1966.51 250.069 1966.53 250.06C1966.55 250.05 1966.57 250.04 1966.59 250.03C1974.18 244.98 1979.51 237.73 1981.27 227.73C1982.64 219.97 1983.67 211.96 1983.7 204.05C1983.76 189.465 1983.8 181.951 1983.82 177.625ZM3340.54 162.33C3340.3 162.33 3340.09 162.45 3339.95 162.63H3339.94C3339.87 162.725 3339.79 162.818 3339.71 162.911C3339.64 163.004 3339.56 163.096 3339.49 163.188L3339.48 163.201C3339.38 163.316 3339.28 163.433 3339.19 163.55C3338.77 164.06 3338.36 164.56 3337.96 165.08C3326.84 179.42 3314.62 192.75 3300.92 204.68C3292.78 211.76 3284.47 218.56 3275.01 223.84C3270.52 226.33 3265.94 228.65 3260.68 229.1C3255.39 229.54 3252.11 227.32 3251.21 222.12C3250.61 218.61 3250.34 214.98 3250.34 211.42L3250.32 195.14C3250.3 179.08 3250.29 171.05 3250.29 163.02C3250.29 154.99 3250.3 147.65 3250.32 132.93V130.63L3250.34 114.6C3250.35 109.54 3250.67 104.48 3251.18 99.4502C3252.14 90.2702 3254.64 81.5802 3261.44 74.8902C3263.29 73.0606 3265.4 71.4908 3267.51 69.9211L3267.51 69.9202C3267.82 69.6861 3268.13 69.4486 3268.44 69.2116L3268.45 69.2072C3268.66 69.0407 3268.88 68.8746 3269.1 68.7102C3269.15 68.6865 3269.21 68.6592 3269.27 68.6263C3269.31 68.6038 3269.35 68.5787 3269.39 68.5502C3270.25 67.9688 3270.95 67.5616 3271.51 67.2434C3272.47 66.6859 3272.97 66.4013 3272.97 65.9302C3272.97 65.1902 3272.3 64.9502 3270.68 64.9502H3176.2C3176.12 64.9578 3176.04 64.9538 3175.96 64.9515C3175.94 64.9508 3175.91 64.9502 3175.89 64.9502H3175.88H3175.8C3174.18 64.9502 3173.47 65.2002 3173.47 65.9302C3173.47 66.4202 3173.98 66.7502 3175.02 67.3502C3175.11 67.4102 3175.21 67.4702 3175.31 67.5202C3175.64 67.7136 3176.03 67.9424 3176.47 68.2006L3176.72 68.3502C3185.23 73.7302 3191.3 81.1202 3193.06 91.2002C3194.45 99.1102 3195.23 107.23 3195.26 115.26L3195.29 122.44V122.74C3195.37 141.06 3195.39 147.23 3195.39 153.4C3195.39 156.53 3195.39 159.65 3195.38 164.36C3195.38 165.697 3195.37 167.16 3195.37 168.787L3195.37 170.899L3195.37 171.015C3195.35 176.103 3195.34 182.659 3195.33 191.53C3195.33 196.83 3195 202.13 3194.57 207.42C3193.47 220.99 3188.05 232.02 3176.17 239.15C3176 239.239 3175.85 239.324 3175.7 239.404L3175.66 239.423C3173.93 240.347 3173.24 240.719 3173.24 241.35C3173.24 241.81 3173.45 242 3173.91 242.08L3173.99 242.09C3174.33 242.137 3174.78 242.135 3175.37 242.132C3175.53 242.131 3175.71 242.13 3175.89 242.13C3176.02 242.13 3176.14 242.127 3176.26 242.121C3176.43 242.113 3176.6 242.102 3176.76 242.09H3288.04C3290.49 242.09 3292.93 242.13 3295.38 242.18C3304.63 242.34 3312.36 245.22 3316.61 254.22C3316.62 254.25 3316.64 254.28 3316.65 254.31C3316.67 254.35 3316.68 254.38 3316.71 254.41C3316.9 254.9 3317.36 255.26 3317.92 255.26H3317.99H3318.05C3318.07 255.26 3318.09 255.24 3318.11 255.24C3318.67 255.12 3319.11 254.5 3319.2 253.9C3319.27 253.663 3319.33 253.315 3319.39 253.026C3319.4 252.948 3319.42 252.876 3319.43 252.81L3319.55 252.27C3321.53 244.2 3323.5 236.12 3325.47 228.04C3327.44 219.96 3329.41 211.88 3331.38 203.81L3332.88 197.69L3333.16 196.526L3333.17 196.484C3335.69 186.257 3338.19 176.038 3340.65 165.8C3340.69 165.642 3340.73 165.46 3340.79 165.264L3340.79 165.262C3340.88 164.924 3340.98 164.546 3341.05 164.18C3341.2 163.62 3341.29 163.12 3341.29 162.96C3341.29 162.53 3340.85 162.35 3340.52 162.35L3340.54 162.33Z" fill="#E1FD05"/>
</g>
<path fill-rule="evenodd" clip-rule="evenodd" d="M3507.68 209.45C3516.22 203.39 3521.8 193.41 3521.8 182.12C3521.8 163.64 3506.84 148.65 3488.38 148.65C3488.33 148.65 3488.27 148.65 3488.22 148.65C3488.17 148.65 3488.11 148.65 3488.06 148.65C3469.6 148.65 3454.64 163.63 3454.64 182.12C3454.64 193.41 3460.22 203.39 3468.76 209.45C3489.42 225.23 3489.44 256.4 3468.8 272.21C3460.23 278.27 3454.63 288.26 3454.63 299.57C3454.63 318.05 3469.59 333.04 3488.05 333.04C3488.1 333.04 3488.16 333.04 3488.21 333.04C3488.26 333.04 3488.32 333.04 3488.37 333.04C3506.83 333.04 3521.79 318.06 3521.79 299.57C3521.79 288.26 3516.19 278.27 3507.62 272.21C3486.99 256.41 3487 225.23 3507.66 209.45H3507.68Z" fill="#E1FD05"/>
<defs>
<clipPath id="clip0_910_305">
<rect width="1524.31" height="377.67" fill="white"/>
</clipPath>
<clipPath id="clip1_910_305">
<rect width="1524.31" height="377.67" fill="white" transform="translate(1817)"/>
</clipPath>
</defs>
</svg>
