<svg width="77" height="76" viewBox="0 0 77 76" fill="none" xmlns="http://www.w3.org/2000/svg">
<path fill-rule="evenodd" clip-rule="evenodd" d="M62.1545 52.1695C57.5067 52.1695 53.3936 49.8797 50.8821 46.3666L50.8821 47.017C44.6941 38.5017 32.5142 38.0205 25.6491 45.5735C23.2117 49.5311 18.8389 52.1695 13.8499 52.1695C6.20212 52.1695 0.00240232 45.9698 0.00240265 38.3221C0.00240299 30.6743 6.20212 24.4746 13.8499 24.4746C19.4222 24.4746 24.2257 27.766 26.4225 32.5106C33.3965 39.2219 44.9202 38.4754 50.8821 30.2713L50.8821 30.2776C53.3936 26.7645 57.5067 24.4746 62.1545 24.4746C69.8022 24.4746 76.002 30.6743 76.002 38.3221C76.002 45.9698 69.8022 52.1695 62.1545 52.1695Z" fill="#E1FD05"/>
<path fill-rule="evenodd" clip-rule="evenodd" d="M23.8305 62.152C23.8305 57.5051 26.1195 53.3927 29.6315 50.881L28.9834 50.881C37.5008 44.6916 37.9802 32.5074 30.4216 25.6432C26.4667 23.2052 23.8305 18.8339 23.8305 13.847C23.8305 6.19921 30.0302 -0.000501604 37.6779 -0.000500936C45.3257 -0.000500267 51.5254 6.19921 51.5254 13.847C51.5254 19.4177 48.2359 24.2201 43.4934 26.4177C36.7783 33.3913 37.5236 44.9181 45.7292 50.881L45.7244 50.881C49.2364 53.3927 51.5254 57.5051 51.5254 62.1521C51.5254 69.7998 45.3257 75.9995 37.6779 75.9995C30.0302 75.9995 23.8305 69.7998 23.8305 62.152Z" fill="#E1FD05"/>
</svg>
